<svg width="90" height="95" viewBox="0 0 90 95" fill="none" xmlns="http://www.w3.org/2000/svg">
<mask id="mask0_157_9014" style="mask-type:alpha" maskUnits="userSpaceOnUse" x="10" y="12" width="69" height="83">
<path d="M53.0276 61.2788V67.5179H54.3872C120.575 67.5179 -45.6869 67.5179 35.352 67.5179H36.7117V61.2788C30.8525 58.5005 26.6408 52.8224 25.9381 46.1026C23.9582 45.8232 22.4353 44.1249 22.4353 42.0715V37.3215C22.4353 35.3041 23.9053 33.6294 25.8344 33.3064V31.2144C25.8344 20.721 34.3568 12.2144 44.8696 12.2144C55.3825 12.2144 63.9049 20.721 63.9049 31.2144V33.3064C65.834 33.6294 67.304 35.3041 67.304 37.3215V42.0715C67.304 44.1249 65.7811 45.8232 63.8011 46.1026C63.0985 52.8224 58.8868 58.5005 53.0276 61.2788Z" fill="white"/>
</mask>
<g mask="url(#mask0_157_9014)">
<path d="M53.0272 61.2786V67.5178H54.3868C67.9034 67.5178 78.8607 78.4548 78.8607 91.9463V94.9999H10.8777V91.9463C10.8777 78.4548 21.8351 67.5178 35.3516 67.5178H36.7113V61.2786C30.852 58.5004 26.6403 52.8223 25.9377 46.1025C23.9578 45.8231 22.4348 44.1248 22.4348 42.0714V37.3214C22.4348 35.304 23.9048 33.6293 25.834 33.3063V31.2143C25.834 20.7209 34.3563 12.2143 44.8692 12.2143C55.3821 12.2143 63.9044 20.7209 63.9044 31.2143V33.3063C65.8336 33.6293 67.3036 35.304 67.3036 37.3214V42.0714C67.3036 44.1248 65.7806 45.8231 63.8007 46.1025C63.0981 52.8223 58.8864 58.5004 53.0272 61.2786Z" fill="#D0C6AC"/>
<path d="M89.7379 12.2143H0.000427246V94.9999H89.7379V12.2143Z" fill="#FFDBB4"/>
<path fill-rule="evenodd" clip-rule="evenodd" d="M63.9047 39.0179V46.8214C63.9047 57.3148 55.3824 65.8214 44.8695 65.8214C34.3566 65.8214 25.8343 57.3148 25.8343 46.8214V39.0179V44.1072C25.8343 54.6005 34.3566 63.1071 44.8695 63.1071C55.3824 63.1071 63.9047 54.6005 63.9047 44.1072V39.0179Z" fill="black" fill-opacity="0.1"/>
</g>
<mask id="mask1_157_9014" style="mask-type:alpha" maskUnits="userSpaceOnUse" x="36" y="49" width="18" height="8">
<path fill-rule="evenodd" clip-rule="evenodd" d="M36.3708 50.76C36.8501 54.0248 40.4709 56.6606 44.8687 56.6606C49.2767 56.6606 52.9063 54.0085 53.3665 50.4649C53.4009 50.3294 53.2901 49.8749 52.6276 49.8749C45.8335 49.8749 40.7012 49.8749 37.1097 49.8749C36.5011 49.8749 36.3267 50.2958 36.3708 50.76Z" fill="white"/>
</mask>
<g mask="url(#mask1_157_9014)">
<path fill-rule="evenodd" clip-rule="evenodd" d="M36.3708 50.7599C36.8501 54.0247 40.4709 56.6605 44.8687 56.6605C49.2767 56.6605 52.9063 54.0084 53.3665 50.4649C53.4009 50.3294 53.2901 49.8748 52.6276 49.8748C45.8335 49.8748 40.7012 49.8748 37.1097 49.8748C36.5011 49.8748 36.3267 50.2957 36.3708 50.7599Z" fill="black" fill-opacity="0.7"/>
<path d="M48.6077 46.1428H41.4695C40.5309 46.1428 39.77 46.9023 39.77 47.8392V49.875C39.77 50.8119 40.5309 51.5714 41.4695 51.5714H48.6077C49.5464 51.5714 50.3073 50.8119 50.3073 49.875V47.8392C50.3073 46.9023 49.5464 46.1428 48.6077 46.1428Z" fill="white"/>
</g>
<path fill-rule="evenodd" clip-rule="evenodd" d="M40.7896 44.107C40.7896 45.6061 42.6158 46.8213 44.8686 46.8213C47.1213 46.8213 48.9476 45.6061 48.9476 44.107" fill="black" fill-opacity="0.16"/>
<path fill-rule="evenodd" clip-rule="evenodd" d="M31.3267 38.152C31.9543 36.8631 33.3676 35.9645 35.0105 35.9645C36.6475 35.9645 38.0566 36.8568 38.6876 38.1384C38.875 38.5191 38.6083 38.8306 38.3392 38.5998C37.5061 37.8848 36.3229 37.4383 35.0105 37.4383C33.739 37.4383 32.589 37.8573 31.7609 38.5335C31.4581 38.7807 31.1431 38.529 31.3267 38.152Z" fill="black" fill-opacity="0.6"/>
<path fill-rule="evenodd" clip-rule="evenodd" d="M51.0418 38.1517C51.6695 36.8628 53.0827 35.9642 54.7256 35.9642C56.3627 35.9642 57.7718 36.8565 58.4027 38.1381C58.5902 38.5188 58.3234 38.8303 58.0544 38.5995C57.2212 37.8845 56.0381 37.438 54.7256 37.438C53.4542 37.438 52.3041 37.857 51.476 38.5332C51.1732 38.7804 50.8582 38.5287 51.0418 38.1517Z" fill="black" fill-opacity="0.6"/>
<path d="M31.1464 33.6429C32.4771 31.7739 36.1253 30.7258 39.2679 31.4961C39.6325 31.5855 40.0007 31.3629 40.0902 30.9989C40.1798 30.635 39.9568 30.2675 39.5921 30.1781C35.9426 29.2835 31.7181 30.4972 30.0381 32.8567C29.8206 33.1622 29.8924 33.5858 30.1984 33.8029C30.5045 34.02 30.9289 33.9484 31.1464 33.6429Z" fill="black" fill-opacity="0.6"/>
<path d="M58.5911 33.6429C57.2604 31.7739 53.6121 30.7259 50.4696 31.4961C50.105 31.5855 49.7368 31.3629 49.6473 30.999C49.5577 30.635 49.7807 30.2675 50.1453 30.1782C53.7949 29.2836 58.0194 30.4972 59.6994 32.8568C59.9169 33.1622 59.8451 33.5859 59.5391 33.803C59.233 34.0201 58.8086 33.9484 58.5911 33.6429Z" fill="black" fill-opacity="0.6"/>
<mask id="mask2_157_9014" style="mask-type:alpha" maskUnits="userSpaceOnUse" x="0" y="0" width="90" height="95">
<path d="M89.7375 0H0V94.9998H89.7375V0Z" fill="white"/>
</mask>
<g mask="url(#mask2_157_9014)">
<path fill-rule="evenodd" clip-rule="evenodd" d="M33.9578 14.4077C30.6272 16.4459 27.6645 19.1111 25.6935 22.1758C24.7547 23.6356 23.9824 25.1748 23.2628 26.7213C22.9018 27.4973 22.5723 28.2828 22.2566 29.0731C22.0572 29.5719 21.7511 30.1098 22.039 30.6333C22.2147 30.5309 22.2815 30.5677 22.1711 30.7512C23.0861 31.0003 24.3581 30.2983 25.1508 30.039C26.77 29.5095 28.3901 29.0098 30.0483 28.5694C31.5632 28.1671 34.9429 27.5129 36.2654 27.2087L37.1956 26.198L37.5567 26.8613C38.2903 26.805 42.3423 26.1971 42.3423 26.1971L42.7944 25.1037C43.3777 25.7019 43.7933 26.0126 43.7933 26.0126C44.6622 25.9419 48.4343 25.8574 49.3287 25.868C49.3287 25.868 51.8238 25.9557 52.429 25.9796L52.9956 25.7629L53.1822 26.1283C53.6763 26.3289 56.6639 27.3467 57.2536 27.529L58.1192 27.2217C58.4998 28.1354 59.4583 28.0202 60.2527 28.742C61.3035 29.6967 63.5051 30.3757 64.5562 31.206C64.9325 31.5033 65.2842 31.8139 65.6379 32.1308C66.0308 32.4827 65.9728 32.5342 66.1004 32.9379C66.1386 33.0587 66.527 33.6839 66.6925 33.735C67.2817 33.917 63.2411 23.3915 62.1319 22.0458C60.9871 20.6567 53.5624 11.3061 43.7175 11.6122" fill="black" fill-opacity="0.16"/>
<path fill-rule="evenodd" clip-rule="evenodd" d="M48.9437 53.5213C48.9473 53.5495 48.9491 53.5781 48.9491 53.6073V56.6608C48.9491 58.722 47.2751 60.393 45.2101 60.393H44.8702C42.8051 60.393 41.1311 58.722 41.1311 56.6608V53.6073C41.1311 53.5781 41.1329 53.5495 41.1365 53.5213C41.1329 53.4937 41.1311 53.4658 41.1311 53.4376C41.1311 52.7818 42.1203 52.2501 43.3405 52.2501C44.0239 52.2501 44.6348 52.4169 45.0401 52.6788C45.4454 52.4169 46.0563 52.2501 46.7397 52.2501C47.9599 52.2501 48.9491 52.7818 48.9491 53.4376C48.9491 53.4658 48.9473 53.4937 48.9437 53.5213Z" fill="#FF4F6D"/>
<mask id="mask3_157_9014" style="mask-type:alpha" maskUnits="userSpaceOnUse" x="8" y="5" width="74" height="90">
<path fill-rule="evenodd" clip-rule="evenodd" d="M63.848 29.7275C63.886 30.2181 63.9054 30.7139 63.9054 31.2142V44.107C63.9054 51.6864 59.4592 58.2292 53.0281 61.2786V67.5177H54.3878C54.906 67.5177 55.0805 67.5338 55.5906 67.5654C50.5215 76.8468 49.2292 84.6767 55.2281 89.4163C55.8052 89.8242 56.222 90.0221 56.2938 90.0558C57.1003 90.4351 57.938 90.8496 58.832 91.0582C60.4032 91.4248 62.2082 90.9319 63.7799 90.7348C64.4977 90.6448 65.2133 90.5893 65.9372 90.5869C66.809 90.584 67.7085 90.6156 68.3649 91.1628C69.0053 91.6968 68.9236 93.6051 67.0477 94.499C68.441 95.1284 70.1109 93.6668 70.6805 92.7424C71.1789 91.9334 71.5624 91.0568 71.7731 90.1622C72.0355 89.0483 72.0524 87.8805 71.8471 86.7647C71.4196 84.4413 70.4275 82.2072 69.7523 79.9375C69.5034 79.1008 69.1791 78.185 69.0379 77.3287C68.9995 77.0963 68.9538 76.2378 68.9898 76.0582C69.0165 75.9247 69.0098 75.7879 69.4708 75.6592C70.8018 75.2872 72.1924 74.6642 73.1598 73.7865C74.3035 72.7489 74.8996 71.4009 75.3804 70.0614C76.1418 67.94 76.5778 65.6686 76.7782 63.4656C76.8198 63.008 76.8433 62.5511 76.8515 62.0925C76.8564 61.8154 76.8225 61.4999 76.8543 61.2223C76.9063 60.7677 76.8357 60.8873 77.2782 60.5865C78.7255 59.6027 79.8546 58.1699 80.5788 56.7286C81.7164 54.4649 81.8645 52.0779 80.9411 49.7845C80.1753 47.8823 78.9607 45.9726 77.0688 44.7475C76.3425 44.2772 75.5761 43.8507 74.8219 43.4142C74.4111 43.1766 73.446 42.8661 73.1543 42.5603C72.9503 42.3464 73.2751 41.2738 73.3162 40.9121C73.4958 39.3351 73.2891 37.8052 72.9201 36.2651C72.1067 32.8697 68.8301 27.3933 67.5146 24.1655C66.3846 21.3928 64.7491 5.40305 45.4095 5.49601C26.07 5.58897 22.5781 22.5413 19.9599 25.7088C17.1166 29.1487 14.2464 35.6847 16.1823 41.7441C14.3115 44.0928 10.0442 47.5147 8.97023 50.9353C8.29646 53.0814 8.32533 55.4716 9.189 57.5539C9.67754 58.7317 10.3773 59.7991 11.1984 60.8243C11.9177 61.7225 12.7172 62.5721 13.4137 63.4837C13.8342 64.0339 13.9469 64.1687 13.7884 64.8469C13.4759 66.1837 12.8302 67.4679 12.2703 68.7402C11.4028 70.7113 10.6739 72.5467 10.566 74.6481C10.4632 76.6487 11.0162 82.3406 16.7732 85.6954C17.4476 86.0883 18.1132 86.4305 18.8271 86.7501C18.4565 85.5983 18.8767 81.4833 19.6235 79.9537C19.8138 80.4799 20.137 80.9863 20.4853 81.4461C21.029 82.1638 22.3121 83.9597 23.9344 84.0431C23.2762 83.0307 22.5681 82.3474 22.3628 81.126C23.7145 81.791 25.6375 82.3973 27.2105 82.3416C28.3678 82.3006 30.0741 81.724 30.9337 81.0035C28.0881 81.4537 25.386 80.5176 24.2992 78.5171C24.0724 78.0995 23.9003 77.6619 23.8003 77.2073C23.6584 76.5628 23.4346 75.5301 23.7352 74.9352C23.8083 74.7907 23.9278 74.6431 24.0697 74.4977C24.0473 74.4711 24.025 74.4444 24.003 74.4176C25.9381 72.7937 28.3672 70.2091 29.6676 68.3211C29.6916 68.2796 29.7155 68.2379 29.7391 68.1963H29.7526C29.7622 68.182 29.7718 68.1677 29.7813 68.1535C31.571 67.7376 33.4361 67.5177 35.3526 67.5177H36.7122V61.2786C30.2812 58.2292 25.835 51.6864 25.835 44.107V31.2142C25.835 30.3787 25.889 29.5557 25.9938 28.7487C27.3336 28.3202 28.6785 27.9156 30.0494 27.5514C31.5643 27.1492 34.944 26.495 36.2665 26.1908L37.1967 25.1801L37.5578 25.8434C38.2914 25.7871 42.3434 25.1792 42.3434 25.1792L42.7955 24.0858C43.3788 24.684 43.7944 24.9947 43.7944 24.9947C44.6633 24.924 48.4354 24.8395 49.3298 24.8501C49.3298 24.8501 51.8249 24.9378 52.4302 24.9616L52.9967 24.745L53.1833 25.1104C53.6774 25.311 56.665 26.3288 57.2547 26.511L58.1203 26.2037C58.5009 27.1175 59.4594 27.0023 60.2538 27.7241C61.1046 28.497 62.7099 29.0893 63.848 29.7275Z" fill="white"/>
</mask>
<g mask="url(#mask3_157_9014)">
<path fill-rule="evenodd" clip-rule="evenodd" d="M63.8475 29.7275C63.8856 30.2181 63.9049 30.7139 63.9049 31.2142V44.107C63.9049 51.6864 59.4587 58.2292 53.0277 61.2786V67.5177H54.3873C54.9055 67.5177 55.08 67.5338 55.5901 67.5654C50.521 76.8468 49.2287 84.6767 55.2276 89.4163C55.8047 89.8242 56.2215 90.0221 56.2933 90.0558C57.0998 90.4351 57.9375 90.8496 58.8315 91.0582C60.4027 91.4248 62.2078 90.9319 63.7794 90.7348C64.4973 90.6448 65.2128 90.5893 65.9367 90.5869C66.8085 90.584 67.708 90.6156 68.3644 91.1628C69.0048 91.6968 68.9231 93.6051 67.0472 94.499C68.4405 95.1284 70.1104 93.6668 70.68 92.7424C71.1785 91.9334 71.5619 91.0568 71.7726 90.1622C72.035 89.0483 72.0519 87.8805 71.8466 86.7647C71.4191 84.4413 70.4271 82.2072 69.7518 79.9375C69.5029 79.1008 69.1786 78.185 69.0374 77.3287C68.9991 77.0963 68.9533 76.2378 68.9893 76.0582C69.016 75.9247 69.0093 75.7879 69.4703 75.6592C70.8013 75.2872 72.192 74.6642 73.1593 73.7865C74.303 72.7489 74.8991 71.4009 75.3799 70.0614C76.1414 67.94 76.5773 65.6686 76.7777 63.4656C76.8193 63.008 76.8428 62.5511 76.851 62.0925C76.8559 61.8154 76.822 61.4999 76.8538 61.2223C76.9058 60.7677 76.8352 60.8873 77.2777 60.5865C78.725 59.6027 79.8541 58.1699 80.5783 56.7286C81.7159 54.4649 81.864 52.0779 80.9406 49.7845C80.1748 47.8823 78.9602 45.9726 77.0683 44.7475C76.342 44.2772 75.5757 43.8507 74.8214 43.4142C74.4106 43.1766 73.4455 42.8661 73.1538 42.5603C72.9498 42.3464 73.2746 41.2738 73.3158 40.9121C73.4953 39.3351 73.2887 37.8052 72.9196 36.2651C72.1062 32.8697 68.8296 27.3933 67.5141 24.1655C66.3841 21.3928 64.7486 5.40305 45.409 5.49601C26.0695 5.58897 22.5776 22.5413 19.9594 25.7088C17.1161 29.1487 14.2459 35.6847 16.1818 41.7441C14.3111 44.0928 10.0437 47.5147 8.96974 50.9353C8.29598 53.0814 8.32484 55.4716 9.18851 57.5539C9.67706 58.7317 10.3768 59.7991 11.1979 60.8243C11.9173 61.7225 12.7167 62.5721 13.4133 63.4837C13.8337 64.0339 13.9464 64.1687 13.7879 64.8469C13.4754 66.1837 12.8298 67.4679 12.2698 68.7402C11.4024 70.7113 10.6734 72.5467 10.5655 74.6481C10.4628 76.6487 11.0157 82.3406 16.7727 85.6954C17.4471 86.0883 18.1127 86.4305 18.8266 86.7501C18.456 85.5983 18.8762 81.4833 19.623 79.9537C19.8133 80.4799 20.1365 80.9863 20.4849 81.4461C21.0285 82.1638 22.3116 83.9597 23.9339 84.0431C23.2757 83.0307 22.5676 82.3474 22.3624 81.126C23.714 81.791 25.637 82.3973 27.21 82.3416C28.3673 82.3006 30.0736 81.724 30.9332 81.0035C28.0876 81.4537 25.3855 80.5176 24.2988 78.5171C24.0719 78.0995 23.8999 77.6619 23.7998 77.2073C23.6579 76.5628 23.4341 75.5301 23.7347 74.9352C23.8078 74.7907 23.9274 74.6431 24.0692 74.4977C24.0468 74.4711 24.0246 74.4444 24.0025 74.4176C25.9377 72.7937 28.3667 70.2091 29.6671 68.3211C29.6911 68.2796 29.715 68.2379 29.7386 68.1963H29.7521C29.7618 68.182 29.7713 68.1677 29.7808 68.1535C31.5705 67.7376 33.4356 67.5177 35.3521 67.5177H36.7118V61.2786C30.2807 58.2292 25.8345 51.6864 25.8345 44.107V31.2142C25.8345 30.3787 25.8885 29.5557 25.9933 28.7487C27.3331 28.3202 28.678 27.9156 30.049 27.5514C31.5638 27.1492 34.9435 26.495 36.2661 26.1908L37.1962 25.1801L37.5573 25.8434C38.2909 25.7871 42.3429 25.1792 42.3429 25.1792L42.795 24.0858C43.3783 24.684 43.7939 24.9947 43.7939 24.9947C44.6628 24.924 48.4349 24.8395 49.3293 24.8501C49.3293 24.8501 51.8244 24.9378 52.4297 24.9616L52.9963 24.745L53.1828 25.1104C53.6769 25.311 56.6645 26.3288 57.2542 26.511L58.1199 26.2037C58.5004 27.1175 59.4589 27.0023 60.2533 27.7241C61.1041 28.497 62.7094 29.0893 63.8475 29.7275Z" fill="#361A0A"/>
<path fill-rule="evenodd" clip-rule="evenodd" d="M29.8045 68.0138C32.2097 64.7204 29.6242 55.5704 27.5775 52.1822C33.3007 49.5823 44.6024 50.0627 61.4826 53.6233C59.8529 56.6268 59.1881 59.3082 59.4882 61.6676C57.9459 63.5591 56.6717 65.5252 55.6654 67.5657L43.8122 70.4854C36.3218 71.3857 31.6526 70.5618 29.8045 68.0138Z" fill="black" fill-opacity="0.24"/>
</g>
<path fill-rule="evenodd" clip-rule="evenodd" d="M26.5278 57.7107C26.5076 57.6423 26.4581 57.5658 26.3899 57.4849C26.4361 57.56 26.4826 57.635 26.5278 57.7107ZM18.8352 40.8417C19.1264 42.9336 19.6258 44.9437 20.3501 46.9496C21.0508 48.8907 21.8524 50.8374 23.0056 52.6124C24.0803 54.2666 25.3594 55.81 26.3899 57.4849C26.119 57.1634 25.5498 56.7727 25.3314 56.5425C24.9723 56.1639 24.636 55.7737 24.3171 55.3693C23.6636 54.5403 23.081 53.673 22.5178 52.7962C21.4123 51.0751 20.5835 49.2082 19.8652 47.3409C18.4547 43.6739 17.0395 39.2273 18.2792 35.354C18.1834 35.6031 18.4351 36.198 18.4747 36.4725C18.5439 36.952 18.6059 37.4348 18.6371 37.9178C18.7002 38.8958 18.6997 39.8682 18.8352 40.8417ZM23.0657 55.9962C22.6039 55.4087 21.7463 54.9455 21.2158 54.3806C20.7347 53.8684 20.3622 53.2945 20.024 52.7047C19.2574 51.3677 18.7537 50.0022 18.5905 48.5075C18.6277 48.6848 18.9027 48.9915 18.9893 49.1371C19.1979 49.488 19.4043 49.8392 19.597 50.197C19.97 50.8895 20.2813 51.6054 20.6583 52.2961C21.3509 53.565 22.232 54.7932 23.0657 55.9962ZM24.6554 62.2586C25.0342 62.9243 25.3489 63.6043 25.5476 64.3289C25.6525 64.7113 25.7369 65.0987 25.8095 65.4868C25.8329 65.612 25.8374 66.0624 25.8969 66.2572C25.1442 64.8012 24.5696 63.2595 23.673 61.8662C22.7879 60.4907 21.6515 59.226 20.4621 58.0387C19.2063 56.7849 17.9433 55.602 17.2696 54.0192C16.6833 52.6415 16.4568 51.231 16.5932 49.7593C16.594 50.4075 17.1904 51.3274 17.3964 51.9538C17.6784 52.8113 17.9024 53.6859 18.3269 54.501C19.0493 55.8883 20.3524 56.9584 21.4422 58.1271C22.6497 59.4218 23.803 60.7608 24.6554 62.2586ZM19.7934 59.0967C20.1534 59.4419 20.4691 59.8103 20.7474 60.2078C21.0525 60.6437 21.2764 61.1021 21.4765 61.5818C21.6488 61.9948 21.7248 62.7633 21.9957 63.108C21.1192 62.0407 20.2167 61.0325 19.6122 59.8204C19.4062 59.4056 19.0862 58.7947 18.85 58.2952C18.9286 58.4963 19.6158 58.9263 19.7934 59.0967ZM16.2837 61.2507C17.2481 62.6926 18.5093 63.9925 19.334 65.5013C20.2959 67.261 20.7191 69.1679 20.8044 71.113C20.8448 72.0329 20.8426 72.9671 20.7184 73.8845C20.6518 74.3755 20.5451 74.8636 20.4231 75.3472C20.3768 75.5308 20.1374 76.0008 20.0909 76.2873C19.9924 72.7109 20.5854 69.1342 18.722 65.8021C17.8398 64.2243 16.4835 62.879 15.4321 61.3853C14.4866 60.0422 13.5632 58.725 12.8102 57.289C13.2712 57.8712 14.1021 58.3287 14.6173 58.9068C15.2627 59.6308 15.7553 60.4607 16.2837 61.2507ZM20.0909 76.2873C20.0798 76.3565 20.0794 76.4154 20.0955 76.457C20.0936 76.4005 20.0924 76.3439 20.0909 76.2873ZM16.847 68.7034C16.8472 68.8717 17.1244 69.2183 17.2001 69.3937C17.3774 69.8041 17.5218 70.2348 17.5938 70.6698C17.7358 71.5276 17.5494 72.4137 17.2309 73.235C16.5854 74.8999 15.5742 76.3743 14.3032 77.7474C14.7571 77.1544 14.9378 76.1905 15.2572 75.5292C15.585 74.8503 15.9369 74.1819 16.226 73.4896C16.8784 71.9272 16.8208 70.3305 16.847 68.7034ZM13.9091 75.0504C14.0453 74.8645 13.9746 73.9705 14.0467 73.7367C14.1799 73.3047 14.4103 72.8879 14.675 72.5034C14.5338 72.7405 14.7425 73.3401 14.6735 73.6479C14.5605 74.1529 14.2758 74.6425 13.9091 75.0504ZM33.5189 14.5041C33.4914 14.5233 33.4643 14.5583 33.4374 14.6046C33.4646 14.5711 33.4913 14.5374 33.5189 14.5041ZM28.5015 21.827C28.9842 21.4043 29.2414 20.4052 29.5743 19.8661C29.9568 19.2468 30.3963 18.6518 30.8131 18.0488C31.6398 16.8532 32.4198 15.6794 33.4374 14.5913C33.2261 14.9083 33.0386 15.8698 32.9226 16.1227C32.6196 16.7835 32.2582 17.4169 31.8278 18.0242C30.8555 19.3965 29.8122 20.6717 28.5015 21.827ZM28.3195 18.3629C28.5746 17.9128 28.9633 17.5324 29.4005 17.2048C29.2058 17.3752 29.118 18.0784 28.9842 18.3159C28.714 18.795 28.3204 19.2082 27.898 19.5955C28.1236 19.398 28.1601 18.6445 28.3195 18.3629ZM68.8353 51.615C68.833 51.6325 68.8284 51.6673 68.8214 51.7203C68.8207 51.2028 68.5902 50.6342 68.5629 50.1021C68.5248 49.3589 68.6317 48.638 68.931 47.9334C69.5222 46.5419 70.6316 45.488 72.0458 44.6632C71.6567 44.8921 71.2753 45.7534 71.0257 46.1114C70.6508 46.6496 70.2502 47.1928 69.9333 47.7572C69.2729 48.9339 69.0814 50.3417 68.8353 51.615ZM68.323 44.2708C68.2423 44.6863 68.1362 45.0986 67.9867 45.501C67.8255 45.935 67.6151 46.3569 67.3805 46.7659C67.2344 47.0207 66.7078 47.5553 66.7081 47.8371C66.6801 46.1753 67.2955 44.6698 68.4662 43.339C68.3379 43.562 68.3702 44.0279 68.323 44.2708ZM68.0505 56.2265C69.2933 56.0511 70.4658 56.6545 71.253 57.4314C71.6736 57.8465 72.0475 58.3235 72.2948 58.8336C72.4806 59.2172 72.4803 59.8458 72.7299 60.1635C72.1189 59.3429 71.3443 58.68 70.5801 57.9703C70.0487 57.4768 68.9867 56.2126 68.0505 56.2265ZM67.7861 59.7472C67.7209 59.7252 67.1288 59.5581 66.9917 59.6387C67.1948 59.5482 67.4438 59.4379 67.6671 59.4084C69.1234 59.2153 70.8936 60.4741 71.0892 61.6887C70.9264 61.2727 70.0609 60.9285 69.6694 60.7216C69.0498 60.3938 68.458 59.9968 67.7861 59.7472ZM68.4009 62.3976C68.6532 62.4592 69.1893 62.7963 69.4368 62.7926C68.4411 62.8168 67.5428 62.7063 66.5845 62.4825C66.6362 62.4966 67.1824 62.3279 67.2001 62.3254C67.6131 62.2672 68.0014 62.2999 68.4009 62.3976ZM64.5445 67.099C66.0023 67.0168 67.718 67.2293 69.1101 67.5796C69.8011 67.7535 70.4491 68.016 71.045 68.3583C71.5257 68.6344 72.3807 69.0137 72.7022 69.4227C71.4312 67.2338 68.6743 66.0968 65.8499 66.6606C65.4734 66.7362 64.8952 67.0938 64.5445 67.099ZM64.2184 71.3172C65.1322 70.99 66.1428 70.6748 67.1358 70.629C68.0779 70.5859 69.1228 70.7271 69.9944 71.0269C69.6945 70.9455 68.9773 71.1396 68.662 71.1752C68.2213 71.225 67.7795 71.2765 67.3377 71.3168C66.796 71.3661 66.2495 71.3935 65.7058 71.3924C65.3185 71.3916 64.5774 71.2089 64.2184 71.3172ZM60.6615 77.1572C60.7475 78.5052 61.5288 79.6797 62.6777 80.5775C63.8955 81.5291 65.5257 81.9622 66.4097 83.2335C66.8406 83.853 67.0702 84.5741 67.0333 85.3025C67.0143 85.6779 66.9197 86.0552 66.8175 86.4203C66.7503 86.6605 66.5109 87.054 66.5111 87.2884C66.5217 85.9697 66.5395 84.4345 65.6149 83.328C64.6867 82.2172 63.0681 81.8259 61.9342 80.9139C60.8198 80.0177 59.9745 78.8464 59.7841 77.5263C59.6304 76.4596 59.7062 74.5995 60.814 73.8757C60.5892 74.0079 60.6337 74.6809 60.6283 74.87C60.6068 75.627 60.6133 76.4022 60.6615 77.1572ZM59.8276 82.3355C59.9624 82.5118 60.7011 82.7262 60.9181 82.8477C61.4132 83.1251 61.892 83.4403 62.2848 83.8239C63.0722 84.5929 63.5797 85.6714 63.6163 86.7058C63.6163 86.4613 63.0567 85.8721 62.8996 85.6633C62.6385 85.3164 62.3437 84.9952 62.0434 84.6737C61.3115 83.8897 60.5514 83.1251 59.8276 82.3355ZM77.5582 52.1792C77.9675 52.5357 78.2419 52.9788 78.4674 53.4376C78.9878 54.496 79.0846 55.7167 78.6676 56.8306C78.7367 56.5915 78.5313 56.0894 78.4735 55.8471C78.347 55.3168 78.1492 54.8159 77.9425 54.3061C77.5413 53.317 77.2169 52.3899 76.5201 51.5234C76.7005 51.7499 77.3117 51.9644 77.5582 52.1792ZM57.9594 14.2445C57.9595 14.357 58.2711 14.6831 58.3414 14.8057C58.5169 15.1117 58.6554 15.4328 58.7029 15.7744C58.7568 16.1616 58.6909 16.5406 58.5732 16.9172C58.5033 17.141 58.1708 17.5735 58.1711 17.7752C58.1167 16.5883 57.8537 15.4478 57.9594 14.2445ZM60.5554 16.559C60.6116 16.9807 60.4736 17.4561 60.2278 17.8286C60.2726 17.7233 60.0735 17.0202 60.0671 16.8915C60.0469 16.4935 60.0905 16.0843 60.1167 15.6865C60.117 15.9038 60.5189 16.2845 60.5554 16.559ZM39.899 17.0911C39.4791 17.6043 39.0018 18.0852 38.4883 18.5308C38.1403 18.8326 37.4739 19.1718 37.2088 19.5182C38.3989 17.5802 39.7738 15.9086 41.3903 14.2146C41.1471 14.5269 41.0835 15.2043 40.9051 15.5695C40.642 16.1081 40.2899 16.6132 39.899 17.0911ZM41.9038 17.932C42.0975 17.818 42.2789 17.256 42.4265 17.0667C42.6751 16.7481 42.9787 16.4404 43.3026 16.1749C43.2331 16.2495 43.098 16.8681 43.0222 16.9896C42.7767 17.3833 42.3425 17.7044 41.9038 17.932Z" fill="white" fill-opacity="0.6"/>
</g>
</svg>
