<svg width="106" height="105" viewBox="0 0 106 105" fill="none" xmlns="http://www.w3.org/2000/svg">
<mask id="mask0_157_9130" style="mask-type:alpha" maskUnits="userSpaceOnUse" x="26" y="13" width="54" height="66">
<path d="M62.6355 67.4436V74.3104H64.2416C80.2076 74.3104 54.6016 63.3543 54.6016 78.2031C54.6016 63.3543 25.7907 74.3104 41.7567 74.3104H43.3628V67.4436C36.4417 64.3858 31.4668 58.1365 30.6368 50.7407C28.2981 50.4332 26.4991 48.564 26.4991 46.304V41.0762C26.4991 38.8558 28.2355 37.0127 30.5143 36.6571V34.3547C30.5143 22.8056 40.5811 13.4432 52.9991 13.4432C65.4172 13.4432 75.484 22.8056 75.484 34.3547V36.6571C77.7628 37.0127 79.4991 38.8558 79.4991 41.0762V46.304C79.4991 48.564 77.7002 50.4332 75.3615 50.7407C74.5315 58.1365 69.5566 64.3858 62.6355 67.4436Z" fill="white"/>
</mask>
<g mask="url(#mask0_157_9130)">
<path d="M62.6358 67.4436V74.3104H64.2418C80.2079 74.3104 93.1509 86.3477 93.1509 101.197V104.557H12.8479V101.197C12.8479 86.3477 25.7909 74.3104 41.757 74.3104H43.3631V67.4436C36.442 64.3858 31.4671 58.1365 30.6371 50.7407C28.2983 50.4332 26.4994 48.564 26.4994 46.304V41.0762C26.4994 38.8558 28.2358 37.0127 30.5146 36.6571V34.3547C30.5146 22.8056 40.5814 13.4432 52.9994 13.4432C65.4175 13.4432 75.4843 22.8056 75.4843 34.3547V36.6571C77.763 37.0127 79.4994 38.8558 79.4994 41.0762V46.304C79.4994 48.564 77.7005 50.4332 75.3617 50.7407C74.5318 58.1365 69.5568 64.3858 62.6358 67.4436Z" fill="#D0C6AC"/>
<path d="M106 13.4432H-0.000427246V104.557H106V13.4432Z" fill="#FFDBB4"/>
<path fill-rule="evenodd" clip-rule="evenodd" d="M75.4845 42.9431V51.5317C75.4845 63.0807 65.4177 72.4431 52.9996 72.4431C40.5816 72.4431 30.5148 63.0807 30.5148 51.5317V42.9431V48.5443C30.5148 60.0934 40.5816 69.4557 52.9996 69.4557C65.4177 69.4557 75.4845 60.0934 75.4845 48.5443V42.9431Z" fill="black" fill-opacity="0.1"/>
</g>
<mask id="mask1_157_9130" style="mask-type:alpha" maskUnits="userSpaceOnUse" x="45" y="54" width="16" height="8">
<path fill-rule="evenodd" clip-rule="evenodd" d="M45.4185 55.6872C45.8432 59.2316 49.0755 61.9875 52.9999 61.9875C56.9365 61.9875 60.1766 59.2146 60.5853 55.6544C60.6181 55.3678 60.2741 54.8926 59.8429 54.8926C53.8627 54.8926 49.2811 54.8926 46.209 54.8926C45.7753 54.8926 45.376 55.3326 45.4185 55.6872Z" fill="white"/>
</mask>
<g mask="url(#mask1_157_9130)">
<path fill-rule="evenodd" clip-rule="evenodd" d="M45.4182 55.6872C45.843 59.2316 49.0753 61.9875 52.9997 61.9875C56.9362 61.9875 60.1764 59.2145 60.585 55.6543C60.6179 55.3678 60.2738 54.8925 59.8426 54.8925C53.8624 54.8925 49.2808 54.8925 46.2088 54.8925C45.7751 54.8925 45.3757 55.3326 45.4182 55.6872Z" fill="black" fill-opacity="0.7"/>
<path d="M57.4161 50.7849H48.9843C47.8756 50.7849 46.9767 51.6208 46.9767 52.652V54.8925C46.9767 55.9237 47.8756 56.7596 48.9843 56.7596H57.4161C58.5249 56.7596 59.4237 55.9237 59.4237 54.8925V52.652C59.4237 51.6208 58.5249 50.7849 57.4161 50.7849Z" fill="white"/>
<path d="M50.9925 67.2155C53.4318 67.2155 55.4092 65.3765 55.4092 63.1079C55.4092 60.8393 53.4318 59.0003 50.9925 59.0003C48.5533 59.0003 46.5759 60.8393 46.5759 63.1079C46.5759 65.3765 48.5533 67.2155 50.9925 67.2155Z" fill="#FF4F6D"/>
<path d="M55.008 67.2153C57.4472 67.2153 59.4246 65.3762 59.4246 63.1077C59.4246 60.8391 57.4472 59.0001 55.008 59.0001C52.5687 59.0001 50.5913 60.8391 50.5913 63.1077C50.5913 65.3762 52.5687 67.2153 55.008 67.2153Z" fill="#FF4F6D"/>
</g>
<path fill-rule="evenodd" clip-rule="evenodd" d="M48.1815 48.5447C48.1815 50.1946 50.3387 51.5321 52.9997 51.5321C55.6607 51.5321 57.8179 50.1946 57.8179 48.5447" fill="black" fill-opacity="0.16"/>
<path d="M42.5599 47.0512C45.6644 47.0512 48.1811 44.7106 48.1811 41.8233C48.1811 38.936 45.6644 36.5955 42.5599 36.5955C39.4554 36.5955 36.9387 38.936 36.9387 41.8233C36.9387 44.7106 39.4554 47.0512 42.5599 47.0512Z" fill="white"/>
<path d="M63.4385 47.0509C66.543 47.0509 69.0597 44.7103 69.0597 41.823C69.0597 38.9357 66.543 36.5952 63.4385 36.5952C60.334 36.5952 57.8173 38.9357 57.8173 41.823C57.8173 44.7103 60.334 47.0509 63.4385 47.0509Z" fill="white"/>
<path d="M42.5595 44.0635C43.89 44.0635 44.9686 43.0604 44.9686 41.823C44.9686 40.5856 43.89 39.5825 42.5595 39.5825C41.229 39.5825 40.1505 40.5856 40.1505 41.823C40.1505 43.0604 41.229 44.0635 42.5595 44.0635Z" fill="black" fill-opacity="0.7"/>
<path d="M63.4383 44.0635C64.7688 44.0635 65.8474 43.0604 65.8474 41.823C65.8474 40.5856 64.7688 39.5825 63.4383 39.5825C62.1078 39.5825 61.0292 40.5856 61.0292 41.823C61.0292 43.0604 62.1078 44.0635 63.4383 44.0635Z" fill="black" fill-opacity="0.7"/>
<path fill-rule="evenodd" clip-rule="evenodd" d="M46.0371 34.7616C44.0304 34.8968 42.0531 34.7935 40.0476 34.7161C38.5098 34.6569 36.9489 34.4616 35.4808 35.094C35.1997 35.2149 33.6619 35.945 33.6976 36.3445C33.7261 36.6639 35.2778 37.1628 35.5571 37.2541C37.0302 37.7359 38.4403 37.5885 39.9553 37.504C41.8134 37.4004 43.6633 37.4765 45.5207 37.4245C46.7715 37.3896 48.6994 37.1925 49.3176 35.7821C49.5038 35.3573 49.3598 34.5075 49.1732 34.0429C49.0988 33.8578 48.8839 33.7881 48.7213 33.8948C48.1394 34.2768 47.0104 34.6962 46.0371 34.7616Z" fill="black" fill-opacity="0.6"/>
<path fill-rule="evenodd" clip-rule="evenodd" d="M59.9616 34.7616C61.9683 34.8968 63.9456 34.7935 65.9511 34.7161C67.4889 34.6569 69.0497 34.4616 70.5179 35.094C70.799 35.2149 72.3368 35.945 72.301 36.3445C72.2725 36.6639 70.7208 37.1628 70.4415 37.2541C68.9685 37.7359 67.5584 37.5885 66.0434 37.504C64.1852 37.4004 62.3354 37.4765 60.478 37.4245C59.2272 37.3896 57.2993 37.1925 56.6811 35.7821C56.4949 35.3573 56.6389 34.5075 56.8254 34.0429C56.8998 33.8578 57.1148 33.7881 57.2773 33.8948C57.8593 34.2768 58.9883 34.6962 59.9616 34.7616Z" fill="black" fill-opacity="0.6"/>
<mask id="mask2_157_9130" style="mask-type:alpha" maskUnits="userSpaceOnUse" x="0" y="0" width="106" height="105">
<path d="M106 0H0V104.557H106V0Z" fill="white"/>
</mask>
<g mask="url(#mask2_157_9130)">
<mask id="mask3_157_9130" style="mask-type:alpha" maskUnits="userSpaceOnUse" x="19" y="6" width="64" height="65">
<path fill-rule="evenodd" clip-rule="evenodd" d="M23.2899 38.2154C23.2899 44.407 23.2899 54.3224 23.2899 67.9618C23.2899 69.6117 24.728 70.9491 26.502 70.9491H43.3657V67.4431C36.3268 64.3333 31.3009 57.9224 30.6009 50.3615C28.2811 50.0386 26.502 48.1776 26.502 45.9301V41.0757C26.502 39.7722 27.1004 38.5988 28.0557 37.7799C32.6889 36.802 37.7327 34.9657 42.6998 32.2986C47.5708 29.6831 51.7348 26.6087 54.9377 23.4325C53.5618 26.3856 51.8957 28.9725 49.9393 31.1932C55.0286 29.1308 58.4939 25.815 60.3351 21.2457C60.4868 21.59 60.6448 21.9338 60.8092 22.2771C64.927 30.8786 72.0007 36.975 79.1832 38.9857C79.3891 39.7737 79.502 40.5096 79.502 41.0757V45.9301C79.502 48.1776 77.723 50.0386 75.4031 50.3615C74.7032 57.9224 69.6773 64.3333 62.6384 67.4431V70.9491H69.8657C76.9617 70.9491 82.7141 65.5992 82.7141 58.9997C82.7141 50.0169 82.7141 43.2798 82.7141 38.7884C82.7141 38.7634 82.7104 38.7311 82.7028 38.6915C82.645 34.1128 82.5631 31.4504 82.4572 30.7042C80.5367 17.1681 68.0812 6.72119 53.002 6.72119C38.5134 6.72119 26.4469 16.3659 23.6914 29.1263C21.4739 29.1263 19.6763 31.2161 19.6763 33.794C19.6763 35.4934 20.3568 37.0215 21.625 37.8169C21.9883 38.0447 22.6169 38.1621 23.2899 38.2154Z" fill="white"/>
</mask>
<g mask="url(#mask3_157_9130)">
<path fill-rule="evenodd" clip-rule="evenodd" d="M23.2895 38.2156C23.2895 44.4071 23.2895 54.3226 23.2895 67.962C23.2895 69.6118 24.7276 70.9493 26.5016 70.9493H43.3652V67.4433C36.3264 64.3335 31.3004 57.9225 30.6005 50.3617C28.2807 50.0388 26.5016 48.1778 26.5016 45.9303V41.0759C26.5016 39.7724 27.1 38.5989 28.0552 37.7801C32.6885 36.8022 37.7323 34.9659 42.6993 32.2988C47.5704 29.6833 51.7344 26.6089 54.9373 23.4327C53.5614 26.3857 51.8952 28.9726 49.9389 31.1933C55.0282 29.131 58.4934 25.8152 60.3347 21.2459C60.4864 21.5902 60.6444 21.934 60.8088 22.2773C64.9265 30.8788 72.0003 36.9752 79.1827 38.9859C79.3887 39.7739 79.5016 40.5097 79.5016 41.0759V45.9303C79.5016 48.1778 77.7225 50.0388 75.4027 50.3617C74.7028 57.9225 69.6768 64.3335 62.638 67.4433V70.9493H69.8652C76.9613 70.9493 82.7137 65.5994 82.7137 58.9999C82.7137 50.0171 82.7137 43.28 82.7137 38.7886C82.7137 38.7636 82.7099 38.7312 82.7024 38.6917C82.6446 34.113 82.5627 31.4505 82.4568 30.7044C80.5362 17.1683 68.0807 6.72137 53.0016 6.72137C38.513 6.72137 26.4465 16.3661 23.691 29.1265C21.4735 29.1265 19.6758 31.2163 19.6758 33.7942C19.6758 35.4935 20.3564 37.0217 21.6246 37.8171C21.9878 38.0449 22.6165 38.1623 23.2895 38.2156Z" fill="#944F23"/>
<path d="M105.601 -0.000244141H-0.398865V104.557H105.601V-0.000244141Z" fill="#2C1B18"/>
</g>
<g opacity="0.439991">
<path opacity="0.439991" fill-rule="evenodd" clip-rule="evenodd" d="M24.4535 38.3779C29.9992 37.7206 36.4107 35.6755 42.6993 32.2988C47.5704 29.6833 51.7344 26.6089 54.9373 23.4327C53.5614 26.3858 51.8952 28.9727 49.9389 31.1934C55.0282 29.131 58.4934 25.8152 60.3347 21.2459C60.4864 21.5902 60.6444 21.9341 60.8088 22.2774C65.602 32.2899 74.4007 38.908 82.7137 39.6386V34.3544C82.7137 19.0931 69.4111 6.72144 53.0016 6.72144C38.513 6.72144 26.4465 16.3662 23.82 29.1289C23.7772 29.1273 23.7342 29.1265 23.691 29.1265C21.4735 29.1265 19.6758 31.2163 19.6758 33.7943C19.6758 36.2146 21.2605 38.2047 23.2895 38.4389V38.4966C23.4165 38.4858 23.544 38.4743 23.672 38.4619C23.6783 38.462 23.6847 38.462 23.691 38.462C23.9517 38.462 24.2066 38.4331 24.4535 38.3779Z" fill="white" fill-opacity="0.16"/>
</g>
<mask id="mask4_157_9130" style="mask-type:alpha" maskUnits="userSpaceOnUse" x="28" y="36" width="50" height="46">
<path fill-rule="evenodd" clip-rule="evenodd" d="M45.4438 55.9146C46.3203 55.3049 51.5574 55.0712 52.5015 54.5524C52.7962 54.3904 53.0248 54.2262 53.2009 54.0635C53.3772 54.2262 53.606 54.3904 53.9006 54.5524C54.8446 55.0712 60.0817 55.3049 60.9582 55.9146C61.8457 56.5321 62.4935 57.9488 62.4226 59.0564C62.3375 60.3855 60.7742 63.5568 56.8839 63.9221C56.0348 63.0435 54.7014 62.4768 53.2009 62.4768C51.7007 62.4768 50.3672 63.0435 49.5182 63.9221C45.6279 63.5568 44.0646 60.3855 43.9795 59.0564C43.9086 57.9488 44.5565 56.5321 45.4438 55.9146ZM60.6859 62.3259C60.6865 62.3256 60.6871 62.3254 60.6877 62.3253C60.687 62.3254 60.6865 62.3256 60.6859 62.3259ZM45.7109 62.324C45.7125 62.3246 45.7154 62.3256 45.7175 62.3264C45.7154 62.3256 45.7132 62.3248 45.7109 62.324ZM77.4375 47.792C77.2817 45.5684 76.8012 43.3732 76.3821 41.1829C76.2692 40.5932 75.6553 36.595 75.3786 36.595C75.2853 39.9966 74.9639 43.3465 74.5495 46.7293C74.4255 47.7406 74.2958 48.7521 74.2104 49.767C74.1415 50.5868 74.2644 51.5773 74.0508 52.3702C73.7783 53.381 72.4128 54.3243 71.3507 54.6724C68.7007 55.5412 66.4903 51.9454 64.227 50.8936C61.2889 49.5282 56.238 49.2031 53.2338 50.9827C50.164 49.2031 45.1132 49.5282 42.175 50.8936C39.9118 51.9454 37.7013 55.5412 35.0514 54.6724C33.9894 54.3243 32.6235 53.381 32.3513 52.3702C32.1377 51.5773 32.2605 50.5868 32.1917 49.767C32.1064 48.7521 31.9765 47.7406 31.8526 46.7293C31.4382 43.3465 31.1167 39.9966 31.0235 36.595C30.7468 36.595 30.1327 40.5932 30.0199 41.1829C29.6008 43.3732 29.1205 45.5684 28.9646 47.792C28.8044 50.0771 28.9956 52.3411 29.4994 54.58C29.74 55.6496 30.021 56.7131 30.3222 57.7693C30.657 58.9428 30.1938 61.2279 30.3437 62.4326C30.6273 64.7118 31.7819 69.1569 33.0784 71.1178C33.7051 72.0656 34.4396 72.6574 35.2599 73.4212C36.0493 74.1564 36.3791 75.2961 37.2312 76.0791C38.8196 77.5385 41.1337 78.4071 43.5107 78.6206C45.6435 80.3037 49.1881 81.4052 53.2009 81.4052C57.214 81.4052 60.7586 80.3037 62.8914 78.6206C65.2681 78.4071 67.5824 77.5385 69.1709 76.0791C70.0229 75.2961 70.3527 74.1564 71.1422 73.4212C71.9624 72.6574 72.6969 72.0656 73.3237 71.1178C74.6201 69.1569 75.7748 64.7118 76.0583 62.4326C76.2082 61.2279 75.745 58.9428 76.0799 57.7693C76.3812 56.7131 76.662 55.6496 76.9027 54.58C77.4062 52.3411 77.5976 50.0771 77.4375 47.792Z" fill="white"/>
</mask>
<g mask="url(#mask4_157_9130)">
<path fill-rule="evenodd" clip-rule="evenodd" d="M45.4442 55.9145C46.3207 55.3048 51.5578 55.0711 52.5019 54.5523C52.7965 54.3902 53.0252 54.2261 53.2013 54.0634C53.3776 54.2261 53.6064 54.3902 53.901 54.5523C54.845 55.0711 60.082 55.3048 60.9585 55.9145C61.846 56.532 62.4939 57.9487 62.423 59.0563C62.3379 60.3854 60.7746 63.5567 56.8842 63.922C56.0352 63.0434 54.7018 62.4766 53.2013 62.4766C51.7011 62.4766 50.3676 63.0434 49.5185 63.922C45.6283 63.5567 44.065 60.3854 43.9799 59.0563C43.909 57.9487 44.5569 56.532 45.4442 55.9145ZM60.6863 62.3258C60.6868 62.3255 60.6875 62.3253 60.688 62.3251C60.6874 62.3253 60.6868 62.3255 60.6863 62.3258ZM45.7113 62.3239C45.7129 62.3245 45.7158 62.3255 45.7179 62.3262C45.7158 62.3255 45.7135 62.3246 45.7113 62.3239ZM77.4379 47.7919C77.282 45.5682 76.8016 43.3731 76.3825 41.1828C76.2696 40.5931 75.6556 36.5948 75.379 36.5948C75.2857 39.9965 74.9643 43.3464 74.5498 46.7292C74.4259 47.7405 74.2961 48.752 74.2108 49.7669C74.1419 50.5867 74.2647 51.5772 74.0512 52.3701C73.7787 53.3809 72.4131 54.3242 71.3511 54.6723C68.7011 55.5411 66.4907 51.9452 64.2274 50.8935C61.2892 49.5281 56.2384 49.2029 53.2342 50.9826C50.1644 49.2029 45.1135 49.5281 42.1754 50.8935C39.9122 51.9452 37.7017 55.5411 35.0518 54.6723C33.9898 54.3242 32.6239 53.3809 32.3517 52.3701C32.138 51.5772 32.2609 50.5867 32.1921 49.7669C32.1067 48.752 31.9769 47.7405 31.8529 46.7292C31.4386 43.3464 31.1171 39.9965 31.0239 36.5948C30.7471 36.5948 30.1331 40.5931 30.0203 41.1828C29.6012 43.3731 29.1209 45.5682 28.965 47.7919C28.8047 50.077 28.996 52.341 29.4998 54.5799C29.7404 55.6495 30.0213 56.713 30.3226 57.7692C30.6574 58.9427 30.1942 61.2278 30.3441 62.4325C30.6277 64.7116 31.7823 69.1568 33.0788 71.1177C33.7055 72.0655 34.44 72.6572 35.2603 73.421C36.0497 74.1563 36.3795 75.2959 37.2316 76.0789C38.8199 77.5383 41.1341 78.407 43.5111 78.6205C45.6438 80.3035 49.1885 81.405 53.2013 81.405C57.2144 81.405 60.7589 80.3035 62.8918 78.6205C65.2685 78.407 67.5828 77.5383 69.1713 76.0789C70.0233 75.2959 70.3531 74.1563 71.1426 73.421C71.9628 72.6572 72.6973 72.0655 73.3241 71.1177C74.6205 69.1568 75.7752 64.7116 76.0587 62.4325C76.2086 61.2278 75.7453 58.9427 76.0803 57.7692C76.3815 56.713 76.6624 55.6495 76.9031 54.5799C77.4066 52.341 77.598 50.077 77.4379 47.7919Z" fill="#5E7AA9"/>
<path d="M112.424 26.8859H6.42413V118H112.424V26.8859Z" fill="#4A312C"/>
</g>
<g filter="url(#filter0_d_157_9130)">
<path fill-rule="evenodd" clip-rule="evenodd" d="M46.5825 37.0719C47.5907 37.0809 48.0672 37.2396 48.239 38.235C48.413 39.2432 48.2438 40.3768 48.0432 41.3699C47.7369 42.8863 47.2276 44.3719 46.0421 45.4803C45.4175 46.0639 44.6559 46.5292 43.8457 46.8468C43.4155 47.0156 42.9611 47.1374 42.507 47.2298C42.3742 47.2568 41.2406 47.4046 41.9359 47.3295C40.3134 47.5048 38.5532 47.4978 37.1982 46.5202C35.6965 45.4367 34.6681 43.7221 34.2159 42.0143C33.9513 41.015 33.3954 38.6251 34.4112 37.8261C35.5748 36.9107 46.5825 37.0719 46.5825 37.0719Z" fill="black" fill-opacity="0.7"/>
<path fill-rule="evenodd" clip-rule="evenodd" d="M46.5825 37.0719C47.5907 37.0809 48.0672 37.2396 48.239 38.235C48.413 39.2432 48.2438 40.3768 48.0432 41.3699C47.7369 42.8863 47.2276 44.3719 46.0421 45.4803C45.4175 46.0639 44.6559 46.5292 43.8457 46.8468C43.4155 47.0156 42.9611 47.1374 42.507 47.2298C42.3742 47.2568 41.2406 47.4046 41.9359 47.3295C40.3134 47.5048 38.5532 47.4978 37.1982 46.5202C35.6965 45.4367 34.6681 43.7221 34.2159 42.0143C33.9513 41.015 33.3954 38.6251 34.4112 37.8261C35.5748 36.9107 46.5825 37.0719 46.5825 37.0719Z" fill="url(#paint0_linear_157_9130)" style="mix-blend-mode:screen"/>
<path fill-rule="evenodd" clip-rule="evenodd" d="M59.394 37.0709C58.3858 37.08 57.9093 37.2386 57.7375 38.2339C57.5635 39.2422 57.7327 40.3757 57.9332 41.3688C58.2396 42.8852 58.7489 44.3709 59.9344 45.4792C60.559 46.0629 61.3207 46.5281 62.1308 46.8459C62.561 47.0145 63.0154 47.1363 63.4695 47.2288C63.6023 47.2557 64.7357 47.4037 64.0406 47.3284C65.6631 47.5038 67.4233 47.4968 68.7783 46.5191C70.28 45.4356 71.3084 43.7212 71.7606 42.0134C72.0252 41.014 72.5809 38.6242 71.5653 37.8251C70.4017 36.9096 59.394 37.0709 59.394 37.0709Z" fill="black" fill-opacity="0.7"/>
<path fill-rule="evenodd" clip-rule="evenodd" d="M59.394 37.0709C58.3858 37.08 57.9093 37.2386 57.7375 38.2339C57.5635 39.2422 57.7327 40.3757 57.9332 41.3688C58.2396 42.8852 58.7489 44.3709 59.9344 45.4792C60.559 46.0629 61.3207 46.5281 62.1308 46.8459C62.561 47.0145 63.0154 47.1363 63.4695 47.2288C63.6023 47.2557 64.7357 47.4037 64.0406 47.3284C65.6631 47.5038 67.4233 47.4968 68.7783 46.5191C70.28 45.4356 71.3084 43.7212 71.7606 42.0134C72.0252 41.014 72.5809 38.6242 71.5653 37.8251C70.4017 36.9096 59.394 37.0709 59.394 37.0709Z" fill="url(#paint1_linear_157_9130)" style="mix-blend-mode:screen"/>
<path fill-rule="evenodd" clip-rule="evenodd" d="M46.2767 37.4445C47.229 37.4529 47.6791 37.6001 47.8414 38.5237C48.0057 39.4592 47.8459 40.511 47.6564 41.4325C47.3671 42.8395 46.8861 44.2181 45.7662 45.2465C45.1763 45.7881 44.4568 46.2197 43.6916 46.5145C43.2852 46.6711 42.8561 46.7841 42.4271 46.8698C42.3016 46.8949 41.2309 47.032 41.8876 46.9623C40.3551 47.125 38.6925 47.1185 37.4126 46.2114C35.9941 45.206 35.0227 43.6151 34.5956 42.0305C34.3457 41.1033 33.8206 38.8857 34.7801 38.1443C35.8791 37.2949 46.2767 37.4445 46.2767 37.4445ZM36.6278 34.911C34.4434 34.981 32.9856 35.3379 31.9082 37.3676C29.9337 41.0872 33.3133 46.6656 37.0833 48.1856C41.4908 49.963 46.4145 47.9961 48.7446 44.4389C49.9786 42.5555 50.6024 39.703 50.5622 37.5299C50.5111 34.7564 48.4281 34.6795 45.9796 34.7405L36.6278 34.911Z" fill="#252C2F"/>
<path fill-rule="evenodd" clip-rule="evenodd" d="M59.7004 37.4435C58.7482 37.452 58.298 37.5991 58.1358 38.5227C57.9714 39.4582 58.1312 40.51 58.3206 41.4315C58.61 42.8385 59.0911 44.2171 60.2109 45.2455C60.8008 45.7871 61.5203 46.2187 62.2856 46.5136C62.6919 46.6701 63.1211 46.7831 63.5501 46.8688C63.6755 46.8939 64.7461 47.0312 64.0895 46.9613C65.622 47.124 67.2846 47.1175 68.5646 46.2104C69.983 45.205 70.9544 43.6143 71.3815 42.0296C71.6315 41.1023 72.1564 38.8848 71.1971 38.1433C70.098 37.2939 59.7004 37.4435 59.7004 37.4435ZM69.3492 34.91C71.5337 34.98 72.9916 35.3371 74.069 37.3666C76.0433 41.0862 72.6639 46.6646 68.8938 48.1848C64.4864 49.962 59.5627 47.9951 57.2324 44.438C55.9985 42.5545 55.3748 39.702 55.4148 37.5289C55.466 34.7554 57.5491 34.6785 59.9976 34.7396L69.3492 34.91Z" fill="#252C2F"/>
<path fill-rule="evenodd" clip-rule="evenodd" d="M33.0059 36.5675C31.636 36.6391 30.0705 36.6563 28.7873 37.2071C27.4283 37.7903 27.2183 39.1113 28.9315 39.2932C29.7031 39.3753 30.4756 39.2397 31.2353 39.1136C31.8576 39.0103 32.7028 39.0438 33.2908 38.8226C34.3866 38.4106 34.3162 36.4978 33.0059 36.5675Z" fill="#252C2F"/>
<path fill-rule="evenodd" clip-rule="evenodd" d="M72.9722 36.5675C74.3421 36.6391 75.9076 36.6563 77.1908 37.2071C78.5498 37.7903 78.7599 39.1113 77.0466 39.2932C76.275 39.3753 75.5025 39.2397 74.7428 39.1136C74.1205 39.0103 73.2753 39.0438 72.6873 38.8226C71.5914 38.4106 71.6619 36.4978 72.9722 36.5675Z" fill="#252C2F"/>
<path fill-rule="evenodd" clip-rule="evenodd" d="M57.0614 37.3464C56.28 36.4875 54.2435 35.9916 52.9588 35.9916C51.6739 35.9916 49.6971 36.4875 48.9158 37.3464C48.5217 37.7794 48.5084 38.3589 49.1913 38.6303C50.0417 38.9685 50.801 38.3553 51.4817 38.0345C52.3523 37.6242 53.6897 37.6693 54.4956 38.0345C55.1814 38.3454 55.9354 38.9685 56.786 38.6303C57.4689 38.3589 57.4555 37.7794 57.0614 37.3464Z" fill="#252C2F"/>
</g>
</g>
<defs>
<filter id="filter0_d_157_9130" x="23.7072" y="32.7278" width="58.5638" height="22.1228" filterUnits="userSpaceOnUse" color-interpolation-filters="sRGB">
<feFlood flood-opacity="0" result="BackgroundImageFix"/>
<feColorMatrix in="SourceAlpha" type="matrix" values="0 0 0 0 0 0 0 0 0 0 0 0 0 0 0 0 0 0 127 0" result="hardAlpha"/>
<feOffset dy="2"/>
<feGaussianBlur stdDeviation="2"/>
<feColorMatrix type="matrix" values="0 0 0 0 0 0 0 0 0 0 0 0 0 0 0 0 0 0 0.1 0"/>
<feBlend mode="normal" in2="BackgroundImageFix" result="effect1_dropShadow_157_9130"/>
<feBlend mode="normal" in="SourceGraphic" in2="effect1_dropShadow_157_9130" result="shape"/>
</filter>
<linearGradient id="paint0_linear_157_9130" x1="41.0679" y1="37.061" x2="41.0679" y2="44.3624" gradientUnits="userSpaceOnUse">
<stop stop-color="white" stop-opacity="0.5"/>
<stop offset="1" stop-opacity="0.5"/>
</linearGradient>
<linearGradient id="paint1_linear_157_9130" x1="64.9085" y1="37.0599" x2="64.9085" y2="47.4158" gradientUnits="userSpaceOnUse">
<stop stop-color="white" stop-opacity="0.5"/>
<stop offset="0.705058" stop-opacity="0.5"/>
</linearGradient>
</defs>
</svg>
