<svg width="90" height="98" viewBox="0 0 90 98" fill="none" xmlns="http://www.w3.org/2000/svg">
<mask id="mask0_157_8962" style="mask-type:alpha" maskUnits="userSpaceOnUse" x="9" y="12" width="70" height="86">
<path d="M35.5438 63.0464V69.4655H34.1475C-48.9181 69.4655 117.45 69.4655 53.6956 69.4655H52.2993V63.0464C58.3164 60.188 62.6415 54.3461 63.3631 47.4325C65.3964 47.145 66.9603 45.3977 66.9603 43.2851V38.398C66.9603 36.3225 65.4507 34.5995 63.4696 34.2671V32.1147C63.4696 21.3187 54.7177 12.5667 43.9216 12.5667C33.1255 12.5667 24.3735 21.3187 24.3735 32.1147V34.2671C22.3924 34.5995 20.8828 36.3225 20.8828 38.398V43.2851C20.8828 45.3977 22.4468 47.145 24.48 47.4325C25.2016 54.3461 29.5268 60.188 35.5438 63.0464Z" fill="white"/>
</mask>
<g mask="url(#mask0_157_8962)">
<path d="M36.8177 61.5721V67.8411H35.454C21.898 67.8411 10.9086 78.8305 10.9086 92.3865V95.4547H79.0904V92.3865C79.0904 78.8305 68.101 67.8411 54.5449 67.8411H53.1813V61.5721C59.0577 58.7805 63.2817 53.0753 63.9864 46.3233C65.9721 46.0426 67.4995 44.3361 67.4995 42.2729V37.5002C67.4995 35.4731 66.0252 33.7904 64.0904 33.4658V31.3638C64.0904 20.8202 55.5431 12.2729 44.9995 12.2729C34.4559 12.2729 25.9086 20.8202 25.9086 31.3638V33.4658C23.9738 33.7904 22.4995 35.4731 22.4995 37.5002V42.2729C22.4995 44.3361 24.0269 46.0426 26.0126 46.3233C26.7173 53.0753 30.9413 58.7805 36.8177 61.5721Z" fill="#D0C6AC"/>
<path d="M-0.000305176 12.2729H89.9997V95.4547H-0.000305176V12.2729Z" fill="#614335"/>
<path fill-rule="evenodd" clip-rule="evenodd" d="M25.9086 39.2045V47.0454C25.9086 57.5891 34.4559 66.1363 44.9996 66.1363C55.5432 66.1363 64.0905 57.5891 64.0905 47.0454V39.2045V44.3182C64.0905 54.8618 55.5432 63.4091 44.9996 63.4091C34.4559 63.4091 25.9086 54.8618 25.9086 44.3182V39.2045Z" fill="black" fill-opacity="0.1"/>
</g>
<mask id="mask1_157_8962" style="mask-type:alpha" maskUnits="userSpaceOnUse" x="38" y="50" width="14" height="7">
<path fill-rule="evenodd" clip-rule="evenodd" d="M51.4365 50.8391C51.0758 54.0749 48.3314 56.5909 44.9994 56.5909C41.657 56.5909 38.9059 54.0593 38.559 50.8091C38.5311 50.5475 38.8232 50.1136 39.1893 50.1136C44.2668 50.1136 48.1569 50.1136 50.7652 50.1136C51.1335 50.1136 51.4725 50.5153 51.4365 50.8391Z" fill="white"/>
</mask>
<g mask="url(#mask1_157_8962)">
<path fill-rule="evenodd" clip-rule="evenodd" d="M51.4368 50.8391C51.0762 54.0749 48.3318 56.5909 44.9997 56.5909C41.6574 56.5909 38.9063 54.0594 38.5593 50.8091C38.5314 50.5475 38.8236 50.1136 39.1897 50.1136C44.2672 50.1136 48.1572 50.1136 50.7656 50.1136C51.1338 50.1136 51.4729 50.5154 51.4368 50.8391Z" fill="black" fill-opacity="0.7"/>
<path d="M41.2498 46.3636H48.4089C49.3503 46.3636 50.1135 47.1268 50.1135 48.0682V50.1137C50.1135 51.055 49.3503 51.8182 48.4089 51.8182H41.2498C40.3084 51.8182 39.5453 51.055 39.5453 50.1137V48.0682C39.5453 47.1268 40.3084 46.3636 41.2498 46.3636Z" fill="white"/>
<path d="M46.7042 61.3641C44.6332 61.3641 42.9542 59.6851 42.9542 57.6141C42.9542 55.543 44.6332 53.8641 46.7042 53.8641C48.7753 53.8641 50.4542 55.543 50.4542 57.6141C50.4542 59.6851 48.7753 61.3641 46.7042 61.3641Z" fill="#FF4F6D"/>
<path d="M43.2952 61.3638C41.2242 61.3638 39.5452 59.6849 39.5452 57.6138C39.5452 55.5428 41.2242 53.8638 43.2952 53.8638C45.3663 53.8638 47.0452 55.5428 47.0452 57.6138C47.0452 59.6849 45.3663 61.3638 43.2952 61.3638Z" fill="#FF4F6D"/>
</g>
<path fill-rule="evenodd" clip-rule="evenodd" d="M49.0904 44.3181C49.0904 45.8243 47.2588 47.0454 44.9995 47.0454C42.7401 47.0454 40.9086 45.8243 40.9086 44.3181" fill="black" fill-opacity="0.16"/>
<path fill-rule="evenodd" clip-rule="evenodd" d="M58.582 38.3349C57.9525 37.0399 56.5351 36.137 54.8874 36.137C53.2456 36.137 51.8324 37.0335 51.1996 38.3212C51.0116 38.7037 51.2791 39.0168 51.5489 38.7848C52.3845 38.0664 53.5711 37.6178 54.8874 37.6178C56.1626 37.6178 57.316 38.0388 58.1465 38.7182C58.4502 38.9666 58.7661 38.7137 58.582 38.3349Z" fill="black" fill-opacity="0.6"/>
<path fill-rule="evenodd" clip-rule="evenodd" d="M38.8093 38.3346C38.1798 37.0396 36.7624 36.1367 35.1147 36.1367C33.4729 36.1367 32.0597 37.0332 31.4269 38.3209C31.2389 38.7034 31.5064 39.0165 31.7762 38.7845C32.6118 38.0661 33.7984 37.6175 35.1147 37.6175C36.3899 37.6175 37.5433 38.0385 38.3738 38.7179C38.6775 38.9663 38.9934 38.7134 38.8093 38.3346Z" fill="black" fill-opacity="0.6"/>
<path fill-rule="evenodd" clip-rule="evenodd" d="M56.3298 28.4926L56.0192 28.3554C54.2323 27.6459 51.5236 27.9433 49.8674 28.7383C49.6741 28.8312 49.8062 29.1313 50.0043 29.116C55.0903 28.7236 58.5144 31.8929 59.6776 34.0388C59.7121 34.1024 59.8163 34.1096 59.8421 34.0503C60.6287 32.2371 58.3251 29.2828 56.3298 28.4926Z" fill="black" fill-opacity="0.6"/>
<path fill-rule="evenodd" clip-rule="evenodd" d="M34.4348 32.0694C32.4706 32.333 29.4077 34.045 29.6638 36.0265C29.6722 36.0914 29.7703 36.1116 29.8127 36.0575C30.6603 34.9706 37.2144 33.3738 39.6013 33.7073C39.8198 33.7379 39.964 33.5124 39.815 33.3717C38.5385 32.1664 36.1943 31.8315 34.4348 32.0694Z" fill="black" fill-opacity="0.6"/>
<mask id="mask2_157_8962" style="mask-type:alpha" maskUnits="userSpaceOnUse" x="0" y="0" width="90" height="96">
<path d="M0 0H90V95.4545H0V0Z" fill="white"/>
</mask>
<g mask="url(#mask2_157_8962)">
<path fill-rule="evenodd" clip-rule="evenodd" d="M66.2786 37.4243C63.1976 37.0628 58.8052 30.4539 56.9481 23.6369C53.1582 24.2292 48.5836 24.5752 43.658 24.5752C38.8309 24.5752 34.3411 24.2429 30.5965 23.6722C28.7344 30.4745 24.3541 37.0592 21.2786 37.424V30.3411C21.2786 22.5397 25.249 15.6657 31.2793 11.6294C31.4595 12.4756 31.5793 13.4099 31.634 14.4197C35.1587 13.9408 39.269 13.6661 43.658 13.6661C48.1455 13.6661 52.3416 13.9533 55.9185 14.4522C55.9724 13.4293 56.0929 12.4834 56.2752 11.6277C62.307 15.6637 66.2786 22.5386 66.2786 30.3411V37.4243Z" fill="black" fill-opacity="0.16"/>
<mask id="mask3_157_8962" style="mask-type:alpha" maskUnits="userSpaceOnUse" x="4" y="0" width="80" height="66">
<path fill-rule="evenodd" clip-rule="evenodd" d="M21.7333 35.6234C21.4426 36.1855 21.2785 36.8236 21.2785 37.5V41.9318C21.2785 43.9836 22.789 45.6826 24.7587 45.9775C25.3529 52.88 29.6202 58.7328 35.5966 61.5719V64.7912C34.2903 65.4374 32.8494 65.7955 31.3353 65.7955C28.7371 65.7955 26.3543 64.7409 24.497 62.9859C23.9988 63.0403 23.4937 63.0682 22.983 63.0682C16.7137 63.0682 11.3036 58.8694 8.79385 52.8013C6.65341 51.0729 5.25574 48.223 5.25574 45C5.25574 44.3915 5.30556 43.7962 5.40081 43.2194C4.6469 41.0247 4.23301 38.6356 4.23301 36.1364C4.23301 31.7504 5.50766 27.7038 7.6577 24.4518C7.64735 24.2572 7.64211 24.0611 7.64211 23.8636C7.64211 20.1284 9.51934 16.8943 12.2544 15.3263C14.7466 9.33039 20.0032 5.11043 26.1545 4.79207C27.6624 3.09361 29.7327 2.04545 32.0171 2.04545C32.3413 2.04545 32.6611 2.06656 32.9757 2.10763C36.3092 0.748774 39.9564 0 43.7785 0C47.6005 0 51.2477 0.748774 54.5813 2.10763C54.8958 2.06656 55.2157 2.04545 55.5398 2.04545C57.8243 2.04545 59.8945 3.09361 61.4024 4.79207C67.5537 5.11043 72.8103 9.33039 75.3025 15.3263C78.0376 16.8943 79.9148 20.1284 79.9148 23.8636C79.9148 24.0611 79.9096 24.2572 79.8992 24.4518C82.0493 27.7038 83.3239 31.7504 83.3239 36.1364C83.3239 38.6356 82.91 41.0247 82.1561 43.2194C82.2514 43.7962 82.3012 44.3915 82.3012 45C82.3012 48.223 80.9035 51.0729 78.7631 52.8013C76.2534 58.8694 70.8433 63.0682 64.5739 63.0682C64.0632 63.0682 63.5582 63.0403 63.06 62.9859C61.2026 64.7409 58.8199 65.7955 56.2216 65.7955C54.7076 65.7955 53.2667 65.4374 51.9603 64.7912V61.5719C57.9367 58.7328 62.204 52.88 62.7983 45.9775C64.7679 45.6826 66.2785 43.9836 66.2785 41.9318V37.5C66.2785 36.824 66.1145 36.1863 65.8242 35.6245C64.9031 35.3509 63.8886 34.5834 62.8726 33.4662C62.8715 33.466 62.8704 33.4658 62.8694 33.4657V33.4627C60.5285 30.8868 58.1802 26.4553 56.948 21.9322C53.1581 22.5245 48.5835 22.8705 43.6579 22.8705C38.8308 22.8705 34.341 22.5382 30.5964 21.9675C29.3621 26.4765 27.0213 30.8898 24.6876 33.4594V33.4657C24.6853 33.466 24.6831 33.4664 24.6808 33.4668C23.6663 34.5823 22.6533 35.349 21.7333 35.6234Z" fill="white"/>
</mask>
<g mask="url(#mask3_157_8962)">
<path fill-rule="evenodd" clip-rule="evenodd" d="M21.7331 35.6234C21.4424 36.1855 21.2782 36.8236 21.2782 37.5V41.9318C21.2782 43.9836 22.7887 45.6826 24.7584 45.9775C25.3527 52.88 29.62 58.7328 35.5964 61.5719V64.7912C34.29 65.4374 32.8491 65.7955 31.335 65.7955C28.7368 65.7955 26.3541 64.7409 24.4967 62.9859C23.9985 63.0403 23.4935 63.0682 22.9828 63.0682C16.7134 63.0682 11.3033 58.8694 8.79361 52.8013C6.65317 51.0729 5.25549 48.223 5.25549 45C5.25549 44.3915 5.30532 43.7962 5.40057 43.2194C4.64666 41.0247 4.23277 38.6356 4.23277 36.1364C4.23277 31.7504 5.50742 27.7038 7.65746 24.4518C7.64711 24.2572 7.64186 24.0611 7.64186 23.8636C7.64186 20.1284 9.5191 16.8943 12.2542 15.3263C14.7464 9.33039 20.003 5.11043 26.1543 4.79207C27.6622 3.09361 29.7324 2.04545 32.0169 2.04545C32.341 2.04545 32.6609 2.06656 32.9754 2.10763C36.309 0.748774 39.9562 0 43.7782 0C47.6003 0 51.2474 0.748774 54.581 2.10763C54.8956 2.06656 55.2154 2.04545 55.5396 2.04545C57.824 2.04545 59.8943 3.09361 61.4022 4.79207C67.5535 5.11043 72.8101 9.33039 75.3023 15.3263C78.0373 16.8943 79.9146 20.1284 79.9146 23.8636C79.9146 24.0611 79.9093 24.2572 79.899 24.4518C82.049 27.7038 83.3237 31.7504 83.3237 36.1364C83.3237 38.6356 82.9098 41.0247 82.1559 43.2194C82.2511 43.7962 82.3009 44.3915 82.3009 45C82.3009 48.223 80.9033 51.0729 78.7628 52.8013C76.2531 58.8694 70.843 63.0682 64.5737 63.0682C64.063 63.0682 63.5579 63.0403 63.0597 62.9859C61.2023 64.7409 58.8196 65.7955 56.2214 65.7955C54.7073 65.7955 53.2664 65.4374 51.96 64.7912V61.5719C57.9364 58.7328 62.2037 52.88 62.798 45.9775C64.7677 45.6826 66.2782 43.9836 66.2782 41.9318V37.5C66.2782 36.824 66.1143 36.1863 65.8239 35.6245C64.9028 35.3509 63.8883 34.5834 62.8724 33.4662C62.8713 33.466 62.8702 33.4658 62.8691 33.4657V33.4627C60.5283 30.8868 58.18 26.4553 56.9477 21.9322C53.1579 22.5245 48.5833 22.8705 43.6576 22.8705C38.8306 22.8705 34.3407 22.5382 30.5961 21.9675C29.3618 26.4765 27.0211 30.8898 24.6873 33.4594V33.4657C24.6851 33.466 24.6828 33.4664 24.6806 33.4668C23.6661 34.5823 22.6531 35.349 21.7331 35.6234Z" fill="#314756"/>
<path d="M-6.6759 0H83.3241V95.4545H-6.6759V0Z" fill="#F59797"/>
</g>
<g filter="url(#filter0_d_157_8962)">
<path fill-rule="evenodd" clip-rule="evenodd" d="M40.5517 34.5661C39.2169 31.8608 36.4308 29.9999 33.2101 29.9999C30.1693 29.9999 27.5159 31.6587 26.1056 34.1208C26.0339 34.1012 25.9585 34.0908 25.8806 34.0908H23.1533C22.6826 34.0908 22.301 34.4724 22.301 34.9431C22.301 35.4138 22.6826 35.7953 23.1533 35.7953H25.3818C25.1519 36.5503 25.0283 37.3516 25.0283 38.1817C25.0283 42.7004 28.6914 46.3635 33.2101 46.3635C37.7288 46.3635 41.3919 42.7004 41.3919 38.1817C41.3919 37.697 41.3498 37.2221 41.2689 36.7605C41.2977 35.2687 42.4441 34.0908 43.8252 34.0908C45.0991 34.0908 46.1733 35.093 46.355 36.4192C46.2303 36.9869 46.1646 37.5766 46.1646 38.1817C46.1646 42.7004 49.8278 46.3635 54.3465 46.3635C58.8652 46.3635 62.5283 42.7004 62.5283 38.1817C62.5283 37.3516 62.4047 36.5503 62.1748 35.7953H64.4033C64.874 35.7953 65.2556 35.4138 65.2556 34.9431C65.2556 34.4724 64.874 34.0908 64.4033 34.0908H61.676C61.5981 34.0908 61.5227 34.1012 61.451 34.1208C60.0406 31.6587 57.3873 29.9999 54.3465 29.9999C51.1582 29.9999 48.3959 31.8235 47.0457 34.4845C46.3375 33.4224 45.1592 32.7272 43.8252 32.7272C42.4574 32.7272 41.2532 33.4581 40.5517 34.5661ZM54.3465 44.9999C50.5809 44.9999 47.5283 41.9473 47.5283 38.1817C47.5283 34.4161 50.5809 31.3635 54.3465 31.3635C58.112 31.3635 61.1647 34.4161 61.1647 38.1817C61.1647 41.9473 58.112 44.9999 54.3465 44.9999ZM33.2101 44.9999C29.4445 44.9999 26.3919 41.9473 26.3919 38.1817C26.3919 34.4161 29.4445 31.3635 33.2101 31.3635C36.9757 31.3635 40.0283 34.4161 40.0283 38.1817C40.0283 41.9473 36.9757 44.9999 33.2101 44.9999Z" fill="black"/>
</g>
<path fill-rule="evenodd" clip-rule="evenodd" d="M40.5517 34.5661C39.2169 31.8608 36.4308 29.9999 33.2101 29.9999C30.1693 29.9999 27.5159 31.6587 26.1056 34.1208C26.0339 34.1012 25.9585 34.0908 25.8806 34.0908H23.1533C22.6826 34.0908 22.301 34.4724 22.301 34.9431C22.301 35.4138 22.6826 35.7953 23.1533 35.7953H25.3818C25.1519 36.5503 25.0283 37.3516 25.0283 38.1817C25.0283 42.7004 28.6914 46.3635 33.2101 46.3635C37.7288 46.3635 41.3919 42.7004 41.3919 38.1817C41.3919 37.697 41.3498 37.2221 41.2689 36.7605C41.2977 35.2687 42.4441 34.0908 43.8252 34.0908C45.0991 34.0908 46.1733 35.093 46.355 36.4192C46.2303 36.9869 46.1646 37.5766 46.1646 38.1817C46.1646 42.7004 49.8278 46.3635 54.3465 46.3635C58.8652 46.3635 62.5283 42.7004 62.5283 38.1817C62.5283 37.3516 62.4047 36.5503 62.1748 35.7953H64.4033C64.874 35.7953 65.2556 35.4138 65.2556 34.9431C65.2556 34.4724 64.874 34.0908 64.4033 34.0908H61.676C61.5981 34.0908 61.5227 34.1012 61.451 34.1208C60.0406 31.6587 57.3873 29.9999 54.3465 29.9999C51.1582 29.9999 48.3959 31.8235 47.0457 34.4845C46.3375 33.4224 45.1592 32.7272 43.8252 32.7272C42.4574 32.7272 41.2532 33.4581 40.5517 34.5661ZM54.3465 44.9999C50.5809 44.9999 47.5283 41.9473 47.5283 38.1817C47.5283 34.4161 50.5809 31.3635 54.3465 31.3635C58.112 31.3635 61.1647 34.4161 61.1647 38.1817C61.1647 41.9473 58.112 44.9999 54.3465 44.9999ZM33.2101 44.9999C29.4445 44.9999 26.3919 41.9473 26.3919 38.1817C26.3919 34.4161 29.4445 31.3635 33.2101 31.3635C36.9757 31.3635 40.0283 34.4161 40.0283 38.1817C40.0283 41.9473 36.9757 44.9999 33.2101 44.9999Z" fill="#252C2F"/>
</g>
<defs>
<filter id="filter0_d_157_8962" x="18.301" y="27.9999" width="50.9545" height="24.3636" filterUnits="userSpaceOnUse" color-interpolation-filters="sRGB">
<feFlood flood-opacity="0" result="BackgroundImageFix"/>
<feColorMatrix in="SourceAlpha" type="matrix" values="0 0 0 0 0 0 0 0 0 0 0 0 0 0 0 0 0 0 127 0" result="hardAlpha"/>
<feOffset dy="2"/>
<feGaussianBlur stdDeviation="2"/>
<feColorMatrix type="matrix" values="0 0 0 0 0 0 0 0 0 0 0 0 0 0 0 0 0 0 0.1 0"/>
<feBlend mode="normal" in2="BackgroundImageFix" result="effect1_dropShadow_157_8962"/>
<feBlend mode="normal" in="SourceGraphic" in2="effect1_dropShadow_157_8962" result="shape"/>
</filter>
</defs>
</svg>
