<svg width="106" height="105" viewBox="0 0 106 105" fill="none" xmlns="http://www.w3.org/2000/svg">
<mask id="mask0_157_9355" style="mask-type:alpha" maskUnits="userSpaceOnUse" x="12" y="13" width="82" height="92">
<path d="M62.6363 67.42V74.2844H64.2424C156.694 74.2844 -19.4988 74.2844 41.7575 74.2844H43.3636V67.42C36.4425 64.3633 31.4676 58.1162 30.6376 50.7229C28.2989 50.4155 26.4999 48.547 26.4999 46.2878V41.0617C26.4999 38.8422 28.2363 36.9996 30.5151 36.6442V34.3426C30.5151 22.7975 40.5819 13.4384 52.9999 13.4384C65.418 13.4384 75.4848 22.7975 75.4848 34.3426V36.6442C77.7635 36.9996 79.4999 38.8422 79.4999 41.0617V46.2878C79.4999 48.547 77.701 50.4155 75.3623 50.7229C74.5323 58.1162 69.5574 64.3633 62.6363 67.42Z" fill="white"/>
</mask>
<g mask="url(#mask0_157_9355)">
<path d="M62.6363 67.42V74.2844H64.2424C80.2084 74.2844 93.1515 86.3175 93.1515 101.161V104.521H12.8484V101.161C12.8484 86.3175 25.7915 74.2844 41.7575 74.2844H43.3636V67.42C36.4425 64.3633 31.4676 58.1162 30.6376 50.7229C28.2989 50.4155 26.5 48.547 26.5 46.2878V41.0617C26.5 38.8422 28.2363 36.9997 30.5151 36.6442V34.3426C30.5151 22.7975 40.5819 13.4384 53 13.4384C65.418 13.4384 75.4848 22.7975 75.4848 34.3426V36.6442C77.7636 36.9997 79.5 38.8422 79.5 41.0617V46.2878C79.5 48.547 77.701 50.4155 75.3623 50.7229C74.5323 58.1162 69.5574 64.3633 62.6363 67.42Z" fill="#D0C6AC"/>
<path d="M106 13.4383H6.10352e-05V104.521H106V13.4383Z" fill="#EDB98A"/>
<path fill-rule="evenodd" clip-rule="evenodd" d="M75.4847 42.9282V51.5138C75.4847 63.0588 65.4179 72.4179 52.9999 72.4179C40.5818 72.4179 30.515 63.0588 30.515 51.5138V42.9282V48.5275C30.515 60.0725 40.5818 69.4316 52.9999 69.4316C65.4179 69.4316 75.4847 60.0725 75.4847 48.5275V42.9282Z" fill="black" fill-opacity="0.1"/>
</g>
<mask id="mask1_157_9355" style="mask-type:alpha" maskUnits="userSpaceOnUse" x="45" y="54" width="16" height="8">
<path fill-rule="evenodd" clip-rule="evenodd" d="M45.4185 55.6678C45.8433 59.2109 49.0756 61.9659 53 61.9659C56.9365 61.9659 60.1767 59.1939 60.5853 55.6349C60.6182 55.3485 60.2741 54.8734 59.8429 54.8734C53.8627 54.8734 49.2811 54.8734 46.2091 54.8734C45.7754 54.8734 45.376 55.3133 45.4185 55.6678Z" fill="white"/>
</mask>
<g mask="url(#mask1_157_9355)">
<path fill-rule="evenodd" clip-rule="evenodd" d="M45.4185 55.6678C45.8433 59.2109 49.0756 61.9659 53 61.9659C56.9365 61.9659 60.1767 59.1939 60.5853 55.6349C60.6182 55.3485 60.2741 54.8734 59.8429 54.8734C53.8627 54.8734 49.2811 54.8734 46.2091 54.8734C45.7754 54.8734 45.376 55.3133 45.4185 55.6678Z" fill="black" fill-opacity="0.7"/>
<path d="M57.4169 50.7671H48.9851C47.8764 50.7671 46.9775 51.6027 46.9775 52.6335V54.8733C46.9775 55.9041 47.8764 56.7397 48.9851 56.7397H57.4169C58.5257 56.7397 59.4245 55.9041 59.4245 54.8733V52.6335C59.4245 51.6027 58.5257 50.7671 57.4169 50.7671Z" fill="white"/>
<path d="M50.9926 67.192C53.4318 67.192 55.4093 65.3536 55.4093 63.0858C55.4093 60.818 53.4318 58.9796 50.9926 58.9796C48.5533 58.9796 46.5759 60.818 46.5759 63.0858C46.5759 65.3536 48.5533 67.192 50.9926 67.192Z" fill="#FF4F6D"/>
<path d="M55.0076 67.1917C57.4469 67.1917 59.4243 65.3533 59.4243 63.0855C59.4243 60.8178 57.4469 58.9794 55.0076 58.9794C52.5684 58.9794 50.5909 60.8178 50.5909 63.0855C50.5909 65.3533 52.5684 67.1917 55.0076 67.1917Z" fill="#FF4F6D"/>
</g>
<path fill-rule="evenodd" clip-rule="evenodd" d="M48.1819 48.5275C48.1819 50.1768 50.3391 51.5138 53.0001 51.5138C55.6611 51.5138 57.8183 50.1768 57.8183 48.5275" fill="black" fill-opacity="0.16"/>
<path fill-rule="evenodd" clip-rule="evenodd" d="M37.0036 41.9754C37.745 40.5574 39.4144 39.5687 41.355 39.5687C43.2888 39.5687 44.9532 40.5504 45.6985 41.9604C45.9199 42.3793 45.6049 42.7221 45.2871 42.4681C44.3029 41.6815 42.9053 41.1902 41.355 41.1902C39.8532 41.1902 38.4947 41.6512 37.5165 42.3951C37.1589 42.6671 36.7868 42.3902 37.0036 41.9754Z" fill="black" fill-opacity="0.6"/>
<path fill-rule="evenodd" clip-rule="evenodd" d="M60.2918 41.9753C61.0332 40.5573 62.7026 39.5686 64.6432 39.5686C66.5769 39.5686 68.2414 40.5503 68.9867 41.9603C69.2081 42.3792 68.893 42.7219 68.5752 42.4679C67.5911 41.6813 66.1935 41.1901 64.6432 41.1901C63.1414 41.1901 61.7829 41.6511 60.8047 42.395C60.447 42.667 60.0749 42.3901 60.2918 41.9753Z" fill="black" fill-opacity="0.6"/>
<path d="M36.7754 35.8961C38.5806 33.5346 42.4013 32.3467 46.3138 33.5197C46.7359 33.6463 47.1884 33.4307 47.3245 33.0383C47.4606 32.6459 47.2288 32.2252 46.8067 32.0986C42.226 30.7253 37.6766 32.1397 35.4663 35.0312C35.2094 35.3673 35.2941 35.8334 35.6557 36.0722C36.0172 36.3111 36.5185 36.2322 36.7754 35.8961Z" fill="black" fill-opacity="0.6"/>
<path d="M69.2121 38.5076C67.6402 36.4513 63.3308 35.2982 59.6188 36.1457C59.1881 36.244 58.7532 35.9991 58.6474 35.5987C58.5416 35.1983 58.805 34.7939 59.2357 34.6956C63.5467 33.7114 68.5368 35.0466 70.5212 37.6427C70.7781 37.9787 70.6933 38.4448 70.3318 38.6837C69.9703 38.9225 69.469 38.8437 69.2121 38.5076Z" fill="black" fill-opacity="0.6"/>
<mask id="mask2_157_9355" style="mask-type:alpha" maskUnits="userSpaceOnUse" x="0" y="0" width="106" height="105">
<path d="M106 0H0V104.521H106V0Z" fill="white"/>
</mask>
<g mask="url(#mask2_157_9355)">
<path fill-rule="evenodd" clip-rule="evenodd" d="M29.9244 36.3957C29.5225 35.4963 29.3099 34.5591 29.3099 33.596C29.3099 26.7927 39.916 21.2775 52.9993 21.2775C66.0826 21.2775 76.6887 26.7927 76.6887 33.596C76.6887 34.5591 76.4762 35.4963 76.0742 36.3957C73.6365 30.9412 64.2306 26.8769 52.9993 26.8769C41.768 26.8769 32.3622 30.9412 29.9244 36.3957Z" fill="#EDECE3"/>
<mask id="mask3_157_9355" style="mask-type:alpha" maskUnits="userSpaceOnUse" x="19" y="1" width="68" height="52">
<path fill-rule="evenodd" clip-rule="evenodd" d="M52.9885 21.9556C62.3971 27.0313 77.5385 31.7709 75.0833 52.6335C82.8636 50.5282 86.745 44.7203 86.7272 35.2097C86.6944 17.5998 65.7884 1.11975 53.803 1.11975C53.5323 1.11975 53.2633 1.13081 52.9966 1.15263C52.7321 1.13081 52.4653 1.11975 52.197 1.11975C40.1811 1.11975 19.305 17.5998 19.2728 35.2097C19.2549 44.9589 23.1362 50.7668 30.9167 52.6335C28.4521 31.7709 43.5684 27.0313 52.9885 21.9556L52.9885 21.9556Z" fill="white"/>
</mask>
<g mask="url(#mask3_157_9355)">
<path fill-rule="evenodd" clip-rule="evenodd" d="M52.9885 21.9556C62.397 27.0313 77.5385 31.7709 75.0832 52.6335C82.8636 50.5282 86.7449 44.7203 86.7272 35.2097C86.6944 17.5998 65.7884 1.11975 53.8029 1.11975C53.5323 1.11975 53.2633 1.13081 52.9966 1.15263C52.732 1.13081 52.4653 1.11975 52.1969 1.11975C40.181 1.11975 19.3049 17.5998 19.2727 35.2097C19.2549 44.9589 23.1362 50.7668 30.9166 52.6335C28.452 31.7709 43.5684 27.0313 52.9885 21.9556L52.9885 21.9556Z" fill="#124C74"/>
<path d="M125.273 1.11975H19.2726V105.64H125.273V1.11975Z" fill="#25557C"/>
</g>
<path fill-rule="evenodd" clip-rule="evenodd" d="M19.2767 35.8404C19.4251 45.2098 23.305 50.8076 30.9163 52.6337C23.1358 50.8752 19.2545 45.404 19.2723 36.22C19.2726 36.0934 19.274 35.9669 19.2767 35.8404ZM61.2891 11.3735C61.588 13.5114 61.0805 16.0101 59.4238 18.7152C54.9459 26.7151 30.7401 26.8783 30.6488 48.408C30.5569 25.2946 54.9289 25.1522 59.4238 16.6279C60.4958 14.7699 61.0866 13.0036 61.2891 11.3735Z" fill="black" fill-opacity="0.16"/>
<g filter="url(#filter0_d_157_9355)">
<path fill-rule="evenodd" clip-rule="evenodd" d="M46.5797 37.0589C47.5878 37.0679 48.0644 37.2265 48.2361 38.2216C48.4102 39.2295 48.241 40.3626 48.0403 41.3554C47.7341 42.8712 47.2247 44.3564 46.0392 45.4643C45.4147 46.0478 44.653 46.5129 43.8428 46.8304C43.4126 46.9991 42.9583 47.1209 42.5041 47.2133C42.3713 47.2402 41.2378 47.388 41.933 47.3129C40.3106 47.4882 38.5504 47.4812 37.1953 46.5039C35.6936 45.4207 34.6652 43.7068 34.213 41.9996C33.9485 41.0007 33.3925 38.6115 34.4083 37.8128C35.5719 36.8977 46.5797 37.0589 46.5797 37.0589Z" fill="black" fill-opacity="0.7"/>
<path fill-rule="evenodd" clip-rule="evenodd" d="M46.5797 37.0589C47.5878 37.0679 48.0644 37.2265 48.2361 38.2216C48.4102 39.2295 48.241 40.3626 48.0403 41.3554C47.7341 42.8712 47.2247 44.3564 46.0392 45.4643C45.4147 46.0478 44.653 46.5129 43.8428 46.8304C43.4126 46.9991 42.9583 47.1209 42.5041 47.2133C42.3713 47.2402 41.2378 47.388 41.933 47.3129C40.3106 47.4882 38.5504 47.4812 37.1953 46.5039C35.6936 45.4207 34.6652 43.7068 34.213 41.9996C33.9485 41.0007 33.3925 38.6115 34.4083 37.8128C35.5719 36.8977 46.5797 37.0589 46.5797 37.0589Z" fill="url(#paint0_linear_157_9355)" style="mix-blend-mode:screen"/>
<path fill-rule="evenodd" clip-rule="evenodd" d="M59.3916 37.058C58.3835 37.0671 57.9069 37.2256 57.7351 38.2206C57.5611 39.2285 57.7303 40.3617 57.9308 41.3544C58.2372 42.8703 58.7465 44.3555 59.9321 45.4634C60.5566 46.0469 61.3183 46.5119 62.1284 46.8296C62.5587 46.9982 63.013 47.12 63.4672 47.2123C63.6 47.2393 64.7334 47.3872 64.0383 47.312C65.6607 47.4873 67.4209 47.4803 68.7759 46.503C70.2776 45.4198 71.306 43.706 71.7582 41.9988C72.0228 40.9997 72.5786 38.6107 71.5629 37.8119C70.3994 36.8968 59.3916 37.058 59.3916 37.058Z" fill="black" fill-opacity="0.7"/>
<path fill-rule="evenodd" clip-rule="evenodd" d="M59.3916 37.058C58.3835 37.0671 57.9069 37.2256 57.7351 38.2206C57.5611 39.2285 57.7303 40.3617 57.9308 41.3544C58.2372 42.8703 58.7465 44.3555 59.9321 45.4634C60.5566 46.0469 61.3183 46.5119 62.1284 46.8296C62.5587 46.9982 63.013 47.12 63.4672 47.2123C63.6 47.2393 64.7334 47.3872 64.0383 47.312C65.6607 47.4873 67.4209 47.4803 68.7759 46.503C70.2776 45.4198 71.306 43.706 71.7582 41.9988C72.0228 40.9997 72.5786 38.6107 71.5629 37.8119C70.3994 36.8968 59.3916 37.058 59.3916 37.058Z" fill="url(#paint1_linear_157_9355)" style="mix-blend-mode:screen"/>
<path fill-rule="evenodd" clip-rule="evenodd" d="M46.2742 37.4314C47.2265 37.4398 47.6766 37.587 47.8389 38.5102C48.0032 39.4454 47.8434 40.4969 47.6539 41.418C47.3646 42.8246 46.8835 44.2026 45.7637 45.2307C45.1738 45.7721 44.4543 46.2036 43.6891 46.4982C43.2827 46.6548 42.8536 46.7677 42.4246 46.8535C42.2991 46.8785 41.2284 47.0156 41.8851 46.9459C40.3526 47.1086 38.69 47.1021 37.4101 46.1952C35.9916 45.1902 35.0202 43.5999 34.5931 42.0158C34.3432 41.0889 33.8181 38.8721 34.7776 38.131C35.8766 37.2819 46.2742 37.4314 46.2742 37.4314ZM36.6253 34.8988C34.4409 34.9687 32.9831 35.3256 31.9057 37.3545C29.9312 41.0729 33.3108 46.6493 37.0808 48.1688C41.4883 49.9455 46.412 47.9793 48.7421 44.4234C49.9761 42.5406 50.5999 39.6891 50.5597 37.5168C50.5086 34.7443 48.4256 34.6674 45.9771 34.7283L36.6253 34.8988Z" fill="#252C2F"/>
<path fill-rule="evenodd" clip-rule="evenodd" d="M59.6972 37.4305C58.745 37.4389 58.2948 37.586 58.1326 38.5093C57.9682 39.4445 58.1281 40.4959 58.3175 41.4171C58.6069 42.8236 59.0879 44.2017 60.2078 45.2297C60.7977 45.7711 61.5171 46.2026 62.2824 46.4974C62.6888 46.6538 63.1179 46.7668 63.5469 46.8525C63.6723 46.8775 64.7429 47.0148 64.0863 46.945C65.6189 47.1076 67.2815 47.1011 68.5614 46.1943C69.9799 45.1893 70.9512 43.5991 71.3784 42.015C71.6283 41.088 72.1533 38.8713 71.1939 38.13C70.0948 37.2809 59.6972 37.4305 59.6972 37.4305ZM69.3461 34.8979C71.5306 34.9678 72.9884 35.3248 74.0658 37.3536C76.0401 41.0719 72.6607 46.6483 68.8907 48.168C64.4832 49.9446 59.5595 47.9784 57.2292 44.4226C55.9953 42.5397 55.3716 39.6881 55.4116 37.5158C55.4629 34.7433 57.5459 34.6664 59.9944 34.7275L69.3461 34.8979Z" fill="#252C2F"/>
<path fill-rule="evenodd" clip-rule="evenodd" d="M33.0031 36.555C31.6332 36.6265 30.0677 36.6437 28.7845 37.1943C27.4255 37.7774 27.2154 39.0978 28.9287 39.2797C29.7003 39.3617 30.4728 39.2262 31.2325 39.1002C31.8548 38.9969 32.7 39.0304 33.288 38.8092C34.3838 38.3974 34.3134 36.4853 33.0031 36.555Z" fill="#252C2F"/>
<path fill-rule="evenodd" clip-rule="evenodd" d="M72.969 36.555C74.3389 36.6265 75.9044 36.6437 77.1877 37.1943C78.5467 37.7774 78.7567 39.0978 77.0435 39.2797C76.2719 39.3617 75.4994 39.2262 74.7396 39.1002C74.1173 38.9969 73.2721 39.0304 72.6841 38.8092C71.5882 38.3974 71.6587 36.4853 72.969 36.555Z" fill="#252C2F"/>
<path fill-rule="evenodd" clip-rule="evenodd" d="M57.0587 37.3334C56.2772 36.4748 54.2408 35.9791 52.956 35.9791C51.6711 35.9791 49.6944 36.4748 48.9131 37.3334C48.519 37.7662 48.5056 38.3455 49.1885 38.6168C50.0389 38.9549 50.7983 38.3419 51.4789 38.0212C52.3495 37.6111 53.687 37.6561 54.4928 38.0212C55.1787 38.332 55.9327 38.9549 56.7832 38.6168C57.4661 38.3455 57.4527 37.7662 57.0587 37.3334Z" fill="#252C2F"/>
</g>
</g>
<defs>
<filter id="filter0_d_157_9355" x="23.7043" y="32.7158" width="58.5634" height="22.1178" filterUnits="userSpaceOnUse" color-interpolation-filters="sRGB">
<feFlood flood-opacity="0" result="BackgroundImageFix"/>
<feColorMatrix in="SourceAlpha" type="matrix" values="0 0 0 0 0 0 0 0 0 0 0 0 0 0 0 0 0 0 127 0" result="hardAlpha"/>
<feOffset dy="2"/>
<feGaussianBlur stdDeviation="2"/>
<feColorMatrix type="matrix" values="0 0 0 0 0 0 0 0 0 0 0 0 0 0 0 0 0 0 0.1 0"/>
<feBlend mode="normal" in2="BackgroundImageFix" result="effect1_dropShadow_157_9355"/>
<feBlend mode="normal" in="SourceGraphic" in2="effect1_dropShadow_157_9355" result="shape"/>
</filter>
<linearGradient id="paint0_linear_157_9355" x1="41.0651" y1="37.048" x2="41.0651" y2="44.3469" gradientUnits="userSpaceOnUse">
<stop stop-color="white" stop-opacity="0.5"/>
<stop offset="1" stop-opacity="0.5"/>
</linearGradient>
<linearGradient id="paint1_linear_157_9355" x1="64.9062" y1="37.0471" x2="64.9062" y2="47.3993" gradientUnits="userSpaceOnUse">
<stop stop-color="white" stop-opacity="0.5"/>
<stop offset="0.705058" stop-opacity="0.5"/>
</linearGradient>
</defs>
</svg>
